<svg width="24" height="25" viewBox="0 0 24 25" fill="none" xmlns="http://www.w3.org/2000/svg">
<path d="M21.97 19.1423C21.97 19.5023 21.89 19.8723 21.72 20.2323C21.55 20.5923 21.33 20.9323 21.04 21.2523C20.55 21.7923 20.01 22.1823 19.4 22.4323C18.8 22.6823 18.15 22.8123 17.45 22.8123C16.43 22.8123 15.34 22.5723 14.19 22.0823C13.04 21.5923 11.89 20.9323 10.75 20.1023C9.6 19.2623 8.51 18.3323 7.47 17.3023C6.44 16.2623 5.51 15.1723 4.68 14.0323C3.86 12.8923 3.2 11.7523 2.72 10.6223C2.24 9.48226 2 8.39226 2 7.35226C2 6.67226 2.12 6.02226 2.36 5.42226C2.6 4.81226 2.98 4.25226 3.51 3.75226C4.15 3.12226 4.85 2.81226 5.59 2.81226C5.87 2.81226 6.15 2.87226 6.4 2.99226C6.66 3.11226 6.89 3.29226 7.07 3.55226L9.39 6.82226C9.57 7.07226 9.7 7.30226 9.79 7.52226C9.88 7.73226 9.93 7.94226 9.93 8.13226C9.93 8.37226 9.86 8.61226 9.72 8.84226C9.59 9.07226 9.4 9.31226 9.16 9.55226L8.4 10.3423C8.29 10.4523 8.24 10.5823 8.24 10.7423C8.24 10.8223 8.25 10.8923 8.27 10.9723C8.3 11.0523 8.33 11.1123 8.35 11.1723C8.53 11.5023 8.84 11.9323 9.28 12.4523C9.73 12.9723 10.21 13.5023 10.73 14.0323C11.27 14.5623 11.79 15.0523 12.32 15.5023C12.84 15.9423 13.27 16.2423 13.61 16.4223C13.66 16.4423 13.72 16.4723 13.79 16.5023C13.87 16.5323 13.95 16.5423 14.04 16.5423C14.21 16.5423 14.34 16.4823 14.45 16.3723L15.21 15.6223C15.46 15.3723 15.7 15.1823 15.93 15.0623C16.16 14.9223 16.39 14.8523 16.64 14.8523C16.83 14.8523 17.03 14.8923 17.25 14.9823C17.47 15.0723 17.7 15.2023 17.95 15.3723L21.26 17.7223C21.52 17.9023 21.7 18.1123 21.81 18.3623C21.91 18.6123 21.97 18.8623 21.97 19.1423Z" stroke="#292D32" stroke-width="1.5" stroke-miterlimit="10"/>
</svg>
