<svg width="25" height="24" viewBox="0 0 25 24" fill="none" xmlns="http://www.w3.org/2000/svg">
<path fill-rule="evenodd" clip-rule="evenodd" d="M15.502 4C16.246 4 17.032 4.26 17.752 4.547L18.279 4.763C19.539 5.291 20.247 6.399 20.796 7.616C21.687 9.591 22.306 12.224 22.52 14.226C22.622 15.176 22.647 16.132 22.464 16.775C22.267 17.462 21.597 17.948 20.946 18.33L20.624 18.513L20.29 18.699C20.1167 18.795 19.9417 18.8897 19.765 18.983L19.243 19.253L18.526 19.61L17.949 19.894C17.8312 19.9576 17.7017 19.9968 17.5684 20.0094C17.4351 20.022 17.3006 20.0077 17.1729 19.9673C17.0452 19.9269 16.9269 19.8613 16.8251 19.7743C16.7232 19.6874 16.6399 19.5808 16.58 19.461C16.5201 19.3413 16.4849 19.2107 16.4764 19.077C16.4679 18.9433 16.4864 18.8094 16.5307 18.683C16.575 18.5566 16.6443 18.4404 16.7343 18.3413C16.8244 18.2422 16.9335 18.1622 17.055 18.106L17.845 17.716L17.265 17.107C15.875 17.677 14.238 18 12.499 18C10.76 18 9.12304 17.678 7.73304 17.107L7.15304 17.715L7.94604 18.105C8.06357 18.1637 8.16839 18.245 8.25451 18.3442C8.34064 18.4434 8.40637 18.5586 8.44798 18.6832C8.48958 18.8078 8.50622 18.9394 8.49697 19.0705C8.48771 19.2015 8.45274 19.3295 8.39404 19.447C8.33534 19.5645 8.25406 19.6694 8.15485 19.7555C8.05564 19.8416 7.94044 19.9073 7.81582 19.9489C7.56415 20.033 7.28941 20.0136 7.05204 19.895L6.50804 19.625C6.10604 19.425 5.70304 19.227 5.30504 19.018L4.37704 18.513L4.05604 18.33C3.40504 17.948 2.73404 17.462 2.53804 16.775C2.35404 16.132 2.38004 15.177 2.48104 14.225C2.69504 12.224 3.31404 9.591 4.20504 7.616C4.75404 6.399 5.46204 5.291 6.72204 4.763C7.55804 4.413 8.57104 4 9.49904 4C10.102 4 10.576 4.555 10.489 5.147C11.1546 5.04978 11.8264 5.00065 12.499 5C13.19 5 13.865 5.05 14.513 5.148C14.4938 5.00599 14.5049 4.8615 14.5456 4.72411C14.5864 4.58671 14.6559 4.45954 14.7495 4.35101C14.8431 4.24248 14.9586 4.15507 15.0885 4.09456C15.2185 4.03404 15.3587 4.00181 15.502 4ZM9.24904 10.5C8.78491 10.5 8.33979 10.6844 8.0116 11.0126C7.68341 11.3408 7.49904 11.7859 7.49904 12.25C7.49904 12.7141 7.68341 13.1592 8.0116 13.4874C8.33979 13.8156 8.78491 14 9.24904 14C9.71317 14 10.1583 13.8156 10.4865 13.4874C10.8147 13.1592 10.999 12.7141 10.999 12.25C10.999 11.7859 10.8147 11.3408 10.4865 11.0126C10.1583 10.6844 9.71317 10.5 9.24904 10.5ZM15.749 10.5C15.2849 10.5 14.8398 10.6844 14.5116 11.0126C14.1834 11.3408 13.999 11.7859 13.999 12.25C13.999 12.7141 14.1834 13.1592 14.5116 13.4874C14.8398 13.8156 15.2849 14 15.749 14C16.2132 14 16.6583 13.8156 16.9865 13.4874C17.3147 13.1592 17.499 12.7141 17.499 12.25C17.499 11.7859 17.3147 11.3408 16.9865 11.0126C16.6583 10.6844 16.2132 10.5 15.749 10.5Z" fill="#00A9F2"/>
</svg>
