<svg width="18" height="18" viewBox="0 0 18 18" fill="none" xmlns="http://www.w3.org/2000/svg">
<path d="M16.2227 11.0625C16.2227 11.73 16.0427 12.36 15.7127 12.9C15.0977 13.9275 13.9652 14.625 12.6602 14.625C11.9552 14.625 11.2952 14.415 10.7402 14.0475C10.2752 13.7625 9.89266 13.365 9.61516 12.9C9.28516 12.36 9.09766 11.73 9.09766 11.0625C9.09766 9.0975 10.6952 7.5 12.6602 7.5C12.9302 7.5 13.1926 7.53 13.4401 7.59C15.0376 7.9425 16.2227 9.3675 16.2227 11.0625Z" stroke="white" stroke-width="1.2" stroke-miterlimit="10" stroke-linecap="round" stroke-linejoin="round"/>
<path d="M11.2734 11.0626L12.1509 11.9401L14.0484 10.1851" stroke="white" stroke-width="1.2" stroke-linecap="round" stroke-linejoin="round"/>
<path d="M15.5155 3.01499V4.67999C15.5155 5.28749 15.133 6.04501 14.758 6.42751L13.438 7.59C13.1905 7.53 12.928 7.5 12.658 7.5C10.693 7.5 9.09547 9.0975 9.09547 11.0625C9.09547 11.73 9.28298 12.36 9.61298 12.9C9.89048 13.365 10.273 13.7625 10.738 14.0475V14.3025C10.738 14.76 10.438 15.3675 10.0555 15.5925L8.99797 16.275C8.01547 16.8825 6.65047 16.2 6.65047 14.985V10.9725C6.65047 10.44 6.34297 9.75751 6.04297 9.38251L3.16295 6.3525C2.78795 5.97 2.48047 5.28751 2.48047 4.83751V3.09C2.48047 2.1825 3.16298 1.5 3.99548 1.5H14.0005C14.833 1.5 15.5155 2.18249 15.5155 3.01499Z" stroke="white" stroke-width="1.2" stroke-miterlimit="10" stroke-linecap="round" stroke-linejoin="round"/>
</svg>
