<svg width="24" height="25" viewBox="0 0 24 25" fill="none" xmlns="http://www.w3.org/2000/svg">
<path d="M20 4.81226H4C2.9 4.81226 2.01 5.71226 2.01 6.81226L2 18.8123C2 19.9123 2.9 20.8123 4 20.8123H20C21.1 20.8123 22 19.9123 22 18.8123V6.81226C22 5.71226 21.1 4.81226 20 4.81226ZM19.6 9.06226L12.53 13.4823C12.21 13.6823 11.79 13.6823 11.47 13.4823L4.4 9.06226C4.29973 9.00597 4.21192 8.92992 4.14189 8.83871C4.07186 8.7475 4.02106 8.64303 3.99258 8.53163C3.96409 8.42022 3.9585 8.30419 3.97616 8.19056C3.99381 8.07693 4.03434 7.96807 4.09528 7.87056C4.15623 7.77304 4.23632 7.68891 4.33073 7.62325C4.42513 7.55759 4.53187 7.51177 4.6445 7.48855C4.75712 7.46534 4.87328 7.46522 4.98595 7.4882C5.09863 7.51119 5.20546 7.55679 5.3 7.62226L12 11.8123L18.7 7.62226C18.7945 7.55679 18.9014 7.51119 19.014 7.4882C19.1267 7.46522 19.2429 7.46534 19.3555 7.48855C19.4681 7.51177 19.5749 7.55759 19.6693 7.62325C19.7637 7.68891 19.8438 7.77304 19.9047 7.87056C19.9657 7.96807 20.0062 8.07693 20.0238 8.19056C20.0415 8.30419 20.0359 8.42022 20.0074 8.53163C19.9789 8.64303 19.9281 8.7475 19.8581 8.83871C19.7881 8.92992 19.7003 9.00597 19.6 9.06226Z" fill="black"/>
</svg>
