<svg width="16" height="17" viewBox="0 0 16 17" fill="none" xmlns="http://www.w3.org/2000/svg">
<path opacity="0.987" fill-rule="evenodd" clip-rule="evenodd" d="M7.21022 1.56124C7.93522 1.48024 8.36422 1.48024 9.14322 1.56124C10.5222 1.76533 11.8004 2.40272 12.7932 3.38124C12.1223 4.01537 11.4603 4.65877 10.8072 5.31124C9.55655 4.25124 8.16055 4.00657 6.61922 4.57724C5.48855 5.09724 4.70122 5.93991 4.25722 7.10524C3.53166 6.56507 2.81555 6.01232 2.10922 5.44724C2.06013 5.4214 2.00407 5.41194 1.94922 5.42024C3.07122 3.2569 4.82455 1.97024 7.20922 1.56024" fill="#F44336"/>
<path opacity="0.997" fill-rule="evenodd" clip-rule="evenodd" d="M1.94625 5.42018C2.00292 5.41151 2.05659 5.42051 2.10725 5.44718C2.81358 6.01226 3.52969 6.56501 4.25525 7.10518C4.14108 7.55924 4.0691 8.02288 4.04025 8.49018C4.06492 8.94218 4.13659 9.38585 4.25525 9.82118L2.00025 11.6162C1.01825 9.56418 1.00025 7.49885 1.94625 5.42018Z" fill="#FFC107"/>
<path opacity="0.999" fill-rule="evenodd" clip-rule="evenodd" d="M12.6841 13.7902C11.982 13.171 11.2469 12.5902 10.4821 12.0502C11.2488 11.5089 11.7141 10.7662 11.8781 9.82223H8.12109V7.21323C10.2878 7.19523 12.4534 7.21356 14.6181 7.26823C15.0288 9.49823 14.5544 11.5089 13.1951 13.3002C13.0335 13.4721 12.8622 13.6356 12.6841 13.7902Z" fill="#448AFF"/>
<path opacity="0.993" fill-rule="evenodd" clip-rule="evenodd" d="M4.255 9.82227C5.075 11.8603 6.57833 12.8116 8.765 12.6763C9.37883 12.6052 9.96735 12.3908 10.483 12.0503C11.2483 12.5916 11.9823 13.1716 12.685 13.7903C11.5716 14.7907 10.1521 15.3843 8.658 15.4743C8.31854 15.5014 7.97746 15.5014 7.638 15.4743C5.09267 15.1743 3.21333 13.8883 2 11.6163L4.255 9.82227Z" fill="#43A047"/>
</svg>
