<svg width="1076" height="689" viewBox="0 0 1076 689" fill="none" xmlns="http://www.w3.org/2000/svg">
<g filter="url(#filter0_f_274_9122)">
<path d="M989 432.5C989 402.099 977.244 371.996 954.403 343.909C931.562 315.822 898.084 290.302 855.88 268.805C813.676 247.308 763.572 230.256 708.43 218.622C653.287 206.988 594.186 201 534.5 201C474.814 201 415.713 206.988 360.57 218.622C305.428 230.256 255.324 247.308 213.12 268.805C170.916 290.302 137.438 315.822 114.597 343.909C91.756 371.996 80 402.099 80 432.5L534.5 432.5H989Z" fill="url(#paint0_linear_274_9122)"/>
</g>
<g filter="url(#filter1_dddd_274_9122)">
<path d="M989 568.5C989 523.391 977.244 478.724 954.403 437.048C931.562 395.373 898.084 357.506 855.88 325.609C813.676 293.712 763.572 268.41 708.43 251.147C653.287 233.885 594.186 225 534.5 225C474.814 225 415.713 233.885 360.57 251.147C305.428 268.41 255.324 293.712 213.12 325.609C170.916 357.506 137.438 395.373 114.597 437.048C91.756 478.724 80 523.391 80 568.5L534.5 568.5H989Z" fill="url(#paint1_linear_274_9122)"/>
</g>
<circle cx="5.15026" cy="5.15026" r="5.15026" transform="matrix(0.996195 0.0871557 0.0871557 -0.996195 189.477 593.01)" fill="#B7BEE1"/>
<circle cx="5.15026" cy="5.15026" r="5.15026" transform="matrix(0.996195 0.0871557 0.0871557 -0.996195 202.668 594.164)" fill="#B7BEE1"/>
<circle cx="5.15026" cy="5.15026" r="5.15026" transform="matrix(0.996195 0.0871557 0.0871557 -0.996195 188.066 609.135)" fill="#B7BEE1"/>
<circle cx="5.15026" cy="5.15026" r="5.15026" transform="matrix(0.996195 0.0871557 0.0871557 -0.996195 201.258 610.289)" fill="#B7BEE1"/>
<circle cx="5.15026" cy="5.15026" r="5.15026" transform="matrix(0.996195 0.0871557 0.0871557 -0.996195 214.453 611.444)" fill="#B7BEE1"/>
<circle cx="5.15026" cy="5.15026" r="5.15026" transform="matrix(0.996195 0.0871557 0.0871557 -0.996195 227.645 612.598)" fill="#B7BEE1"/>
<circle cx="5.15026" cy="5.15026" r="5.15026" transform="matrix(0.996195 0.0871557 0.0871557 -0.996195 240.84 613.752)" fill="#B7BEE1"/>
<circle cx="5.15026" cy="5.15026" r="5.15026" transform="matrix(0.996195 0.0871557 0.0871557 -0.996195 190.887 576.885)" fill="#B7BEE1"/>
<circle cx="5.15026" cy="5.15026" r="5.15026" transform="matrix(0.996195 0.0871557 0.0871557 -0.996195 182.035 559.863)" fill="#B7BEE1"/>
<circle cx="5.15026" cy="5.15026" r="5.15026" transform="matrix(0.996195 0.0871557 0.0871557 -0.996195 173.188 542.84)" fill="#B7BEE1"/>
<circle cx="5.15026" cy="5.15026" r="5.15026" transform="matrix(0.996195 0.0871557 0.0871557 -0.996195 177.785 524.04)" fill="#B7BEE1"/>
<circle cx="5.15026" cy="5.15026" r="5.15026" transform="matrix(0.996195 0.0871557 0.0871557 -0.996195 173.203 508.868)" fill="#B7BEE1"/>
<circle cx="5.15026" cy="5.15026" r="5.15026" transform="matrix(0.996195 0.0871557 0.0871557 -0.996195 187.734 511.616)" fill="#B7BEE1"/>
<circle cx="5.15026" cy="5.15026" r="5.15026" transform="matrix(0.996195 0.0871557 0.0871557 -0.996195 202.266 514.364)" fill="#B7BEE1"/>
<circle cx="5.15026" cy="5.15026" r="5.15026" transform="matrix(0.996195 0.0871557 0.0871557 -0.996195 206.738 497.03)" fill="#B7BEE1"/>
<circle cx="5.15026" cy="5.15026" r="5.15026" transform="matrix(0.996195 0.0871557 0.0871557 -0.996195 208.02 482.371)" fill="#B7BEE1"/>
<circle cx="5.15026" cy="5.15026" r="5.15026" transform="matrix(0.996195 0.0871557 0.0871557 -0.996195 222.68 483.654)" fill="#B7BEE1"/>
<circle cx="5.15026" cy="5.15026" r="5.15026" transform="matrix(0.996195 0.0871557 0.0871557 -0.996195 149.566 492.028)" fill="#B7BEE1"/>
<circle cx="5.15026" cy="5.15026" r="5.15026" transform="matrix(0.996195 0.0871557 0.0871557 -0.996195 164.227 493.311)" fill="#B7BEE1"/>
<circle cx="5.15026" cy="5.15026" r="5.15026" transform="matrix(0.996195 0.0871557 0.0871557 -0.996195 177.418 494.465)" fill="#B7BEE1"/>
<circle cx="5.15026" cy="5.15026" r="5.15026" transform="matrix(0.996195 0.0871557 0.0871557 -0.996195 192.078 495.748)" fill="#B7BEE1"/>
<circle cx="5.15026" cy="5.15026" r="5.15026" transform="matrix(0.996195 0.0871557 0.0871557 -0.996195 238.621 470.277)" fill="#B7BEE1"/>
<circle cx="5.15026" cy="5.15026" r="5.15026" transform="matrix(0.996195 0.0871557 0.0871557 -0.996195 233.91 456.571)" fill="#B7BEE1"/>
<circle cx="5.15026" cy="5.15026" r="5.15026" transform="matrix(0.996195 0.0871557 0.0871557 -0.996195 247.102 457.725)" fill="#B7BEE1"/>
<circle cx="5.15026" cy="5.15026" r="5.15026" transform="matrix(0.996195 0.0871557 0.0871557 -0.996195 260.297 458.879)" fill="#B7BEE1"/>
<circle cx="5.15026" cy="5.15026" r="5.15026" transform="matrix(0.996195 0.0871557 0.0871557 -0.996195 274.957 460.162)" fill="#B7BEE1"/>
<circle cx="5.15026" cy="5.15026" r="5.15026" transform="matrix(0.996195 0.0871557 0.0871557 -0.996195 290.77 448.251)" fill="#B7BEE1"/>
<circle cx="5.15026" cy="5.15026" r="5.15026" transform="matrix(0.996195 0.0871557 0.0871557 -0.996195 303.961 449.406)" fill="#B7BEE1"/>
<circle cx="5.15026" cy="5.15026" r="5.15026" transform="matrix(0.996195 0.0871557 0.0871557 -0.996195 317.156 450.56)" fill="#B7BEE1"/>
<circle cx="5.15026" cy="5.15026" r="5.15026" transform="matrix(0.996195 0.0871557 0.0871557 -0.996195 318.438 435.901)" fill="#B7BEE1"/>
<circle cx="5.15026" cy="5.15026" r="5.15026" transform="matrix(0.996195 0.0871557 0.0871557 -0.996195 305.117 436.212)" fill="#B7BEE1"/>
<circle cx="5.15026" cy="5.15026" r="5.15026" transform="matrix(0.996195 0.0871557 0.0871557 -0.996195 283.129 434.289)" fill="#B7BEE1"/>
<circle cx="5.15026" cy="5.15026" r="5.15026" transform="matrix(0.996195 0.0871557 0.0871557 -0.996195 271.398 433.263)" fill="#B7BEE1"/>
<circle cx="5.15026" cy="5.15026" r="5.15026" transform="matrix(0.996195 0.0871557 0.0871557 -0.996195 259.672 432.237)" fill="#B7BEE1"/>
<circle cx="5.15026" cy="5.15026" r="5.15026" transform="matrix(0.996195 0.0871557 0.0871557 -0.996195 247.945 431.211)" fill="#B7BEE1"/>
<circle cx="5.15026" cy="5.15026" r="5.15026" transform="matrix(0.996195 0.0871557 0.0871557 -0.996195 236.219 430.185)" fill="#B7BEE1"/>
<circle cx="5.15026" cy="5.15026" r="5.15026" transform="matrix(0.996195 0.0871557 0.0871557 -0.996195 224.492 429.159)" fill="#B7BEE1"/>
<circle cx="5.15026" cy="5.15026" r="5.15026" transform="matrix(0.996195 0.0871557 0.0871557 -0.996195 211.297 428.004)" fill="#B7BEE1"/>
<circle cx="5.15026" cy="5.15026" r="5.15026" transform="matrix(0.996195 0.0871557 0.0871557 -0.996195 176.43 438.248)" fill="#B7BEE1"/>
<circle cx="5.15026" cy="5.15026" r="5.15026" transform="matrix(0.996195 0.0871557 0.0871557 -0.996195 189.621 439.402)" fill="#B7BEE1"/>
<circle cx="5.15026" cy="5.15026" r="5.15026" transform="matrix(0.996195 0.0871557 0.0871557 -0.996195 167.945 450.8)" fill="#B7BEE1"/>
<circle cx="5.15026" cy="5.15026" r="5.15026" transform="matrix(0.996195 0.0871557 0.0871557 -0.996195 181.137 451.954)" fill="#B7BEE1"/>
<circle cx="5.15026" cy="5.15026" r="5.15026" transform="matrix(0.996195 0.0871557 0.0871557 -0.996195 194.332 453.108)" fill="#B7BEE1"/>
<circle cx="5.15026" cy="5.15026" r="5.15026" transform="matrix(0.996195 0.0871557 0.0871557 -0.996195 207.523 454.262)" fill="#B7BEE1"/>
<circle cx="5.15026" cy="5.15026" r="5.15026" transform="matrix(0.996195 0.0871557 0.0871557 -0.996195 220.719 455.417)" fill="#B7BEE1"/>
<circle cx="5.15026" cy="5.15026" r="5.15026" transform="matrix(0.996195 0.0871557 0.0871557 -0.996195 202.816 440.556)" fill="#B7BEE1"/>
<circle cx="5.15026" cy="5.15026" r="5.15026" transform="matrix(0.996195 0.0871557 0.0871557 -0.996195 216.008 441.711)" fill="#B7BEE1"/>
<circle cx="5.15026" cy="5.15026" r="5.15026" transform="matrix(0.996195 0.0871557 0.0871557 -0.996195 229.199 442.865)" fill="#B7BEE1"/>
<circle cx="5.15026" cy="5.15026" r="5.15026" transform="matrix(0.996195 0.0871557 0.0871557 -0.996195 242.395 444.019)" fill="#B7BEE1"/>
<circle cx="5.15026" cy="5.15026" r="5.15026" transform="matrix(0.996195 0.0871557 0.0871557 -0.996195 255.586 445.173)" fill="#B7BEE1"/>
<circle cx="5.15026" cy="5.15026" r="5.15026" transform="matrix(0.996195 0.0871557 0.0871557 -0.996195 268.781 446.328)" fill="#B7BEE1"/>
<circle cx="5.15026" cy="5.15026" r="5.15026" transform="matrix(0.996195 0.0871557 0.0871557 -0.996195 199.57 426.978)" fill="#B7BEE1"/>
<circle cx="5.15026" cy="5.15026" r="5.15026" transform="matrix(0.996195 0.0871557 0.0871557 -0.996195 186.379 425.824)" fill="#B7BEE1"/>
<circle cx="5.15026" cy="5.15026" r="5.15026" transform="matrix(0.996195 0.0871557 0.0871557 -0.996195 312.133 423.532)" fill="#B7BEE1"/>
<circle cx="5.15026" cy="5.15026" r="5.15026" transform="matrix(0.996195 0.0871557 0.0871557 -0.996195 316.219 410.596)" fill="#B7BEE1"/>
<circle cx="5.15026" cy="5.15026" r="5.15026" transform="matrix(0.996195 0.0871557 0.0871557 -0.996195 309.918 398.227)" fill="#B7BEE1"/>
<circle cx="5.15026" cy="5.15026" r="5.15026" transform="matrix(0.996195 0.0871557 0.0871557 -0.996195 303.613 385.859)" fill="#B7BEE1"/>
<circle cx="5.15026" cy="5.15026" r="5.15026" transform="matrix(0.996195 0.0871557 0.0871557 -0.996195 297.309 373.49)" fill="#B7BEE1"/>
<circle cx="5.15026" cy="5.15026" r="5.15026" transform="matrix(0.996195 0.0871557 0.0871557 -0.996195 298.336 361.763)" fill="#B7BEE1"/>
<circle cx="5.15026" cy="5.15026" r="5.15026" transform="matrix(0.996195 0.0871557 0.0871557 -0.996195 306.562 352.143)" fill="#B7BEE1"/>
<circle cx="5.15026" cy="5.15026" r="5.15026" transform="matrix(0.996195 0.0871557 0.0871557 -0.996195 317.465 345.711)" fill="#B7BEE1"/>
<circle cx="5.15026" cy="5.15026" r="5.15026" transform="matrix(0.996195 0.0871557 0.0871557 -0.996195 328.367 339.279)" fill="#B7BEE1"/>
<circle cx="5.15026" cy="5.15026" r="5.15026" transform="matrix(0.996195 0.0871557 0.0871557 -0.996195 329.523 326.086)" fill="#B7BEE1"/>
<circle cx="5.15026" cy="5.15026" r="5.15026" transform="matrix(0.996195 0.0871557 0.0871557 -0.996195 337.75 316.466)" fill="#B7BEE1"/>
<circle cx="5.15026" cy="5.15026" r="5.15026" transform="matrix(0.996195 0.0871557 0.0871557 -0.996195 345.977 306.846)" fill="#B7BEE1"/>
<circle cx="5.15026" cy="5.15026" r="5.15026" transform="matrix(0.996195 0.0871557 0.0871557 -0.996195 356.879 300.414)" fill="#B7BEE1"/>
<circle cx="5.15026" cy="5.15026" r="5.15026" transform="matrix(0.996195 0.0871557 0.0871557 -0.996195 363.641 290.666)" fill="#B7BEE1"/>
<circle cx="5.15026" cy="5.15026" r="5.15026" transform="matrix(0.996195 0.0871557 0.0871557 -0.996195 385.887 289.658)" fill="#B7BEE1"/>
<circle cx="5.15026" cy="5.15026" r="5.15026" transform="matrix(0.996195 0.0871557 0.0871557 -0.996195 374 283.261)" fill="#B7BEE1"/>
<circle cx="5.15026" cy="5.15026" r="5.15026" transform="matrix(0.996195 0.0871557 0.0871557 -0.996195 394 278.261)" fill="#B7BEE1"/>
<circle cx="5.15026" cy="5.15026" r="5.15026" transform="matrix(0.996195 0.0871557 0.0871557 -0.996195 399.207 289.346)" fill="#B7BEE1"/>
<circle cx="5.15026" cy="5.15026" r="5.15026" transform="matrix(0.996195 0.0871557 0.0871557 -0.996195 400.27 327.844)" fill="#B7BEE1"/>
<circle cx="5.15026" cy="5.15026" r="5.15026" transform="matrix(0.996195 0.0871557 0.0871557 -0.996195 381.215 326.177)" fill="#B7BEE1"/>
<circle cx="5.15026" cy="5.15026" r="5.15026" transform="matrix(0.996195 0.0871557 0.0871557 -0.996195 361.645 330.374)" fill="#B7BEE1"/>
<circle cx="5.15026" cy="5.15026" r="5.15026" transform="matrix(0.996195 0.0871557 0.0871557 -0.996195 360.617 342.101)" fill="#B7BEE1"/>
<circle cx="5.15026" cy="5.15026" r="5.15026" transform="matrix(0.996195 0.0871557 0.0871557 -0.996195 374.195 338.857)" fill="#B7BEE1"/>
<circle cx="5.15026" cy="5.15026" r="5.15026" transform="matrix(0.996195 0.0871557 0.0871557 -0.996195 387.391 340.012)" fill="#B7BEE1"/>
<circle cx="5.15026" cy="5.15026" r="5.15026" transform="matrix(0.996195 0.0871557 0.0871557 -0.996195 400.582 341.166)" fill="#B7BEE1"/>
<circle cx="5.15026" cy="5.15026" r="5.15026" transform="matrix(0.996195 0.0871557 0.0871557 -0.996195 386.105 354.671)" fill="#B7BEE1"/>
<circle cx="5.15026" cy="5.15026" r="5.15026" transform="matrix(0.996195 0.0871557 0.0871557 -0.996195 384.953 367.864)" fill="#B7BEE1"/>
<circle cx="5.15026" cy="5.15026" r="5.15026" transform="matrix(0.996195 0.0871557 0.0871557 -0.996195 371.758 366.71)" fill="#B7BEE1"/>
<circle cx="5.15026" cy="5.15026" r="5.15026" transform="matrix(0.996195 0.0871557 0.0871557 -0.996195 358.309 368.487)" fill="#B7BEE1"/>
<circle cx="5.15026" cy="5.15026" r="5.15026" transform="matrix(0.996195 0.0871557 0.0871557 -0.996195 345.117 367.333)" fill="#B7BEE1"/>
<circle cx="5.15026" cy="5.15026" r="5.15026" transform="matrix(0.996195 0.0871557 0.0871557 -0.996195 359.465 355.294)" fill="#B7BEE1"/>
<circle cx="5.15026" cy="5.15026" r="5.15026" transform="matrix(0.996195 0.0871557 0.0871557 -0.996195 372.914 353.516)" fill="#B7BEE1"/>
<circle cx="5.15026" cy="5.15026" r="5.15026" transform="matrix(0.996195 0.0871557 0.0871557 -0.996195 370.477 381.369)" fill="#B7BEE1"/>
<circle cx="5.15026" cy="5.15026" r="5.15026" transform="matrix(0.996195 0.0871557 0.0871557 -0.996195 368.535 319.159)" fill="#B7BEE1"/>
<circle cx="5.15026" cy="5.15026" r="5.15026" transform="matrix(0.996195 0.0871557 0.0871557 -0.996195 376.762 309.539)" fill="#B7BEE1"/>
<circle cx="5.15026" cy="5.15026" r="5.15026" transform="matrix(0.996195 0.0871557 0.0871557 -0.996195 376.32 297.684)" fill="#B7BEE1"/>
<circle cx="5.15026" cy="5.15026" r="5.15026" transform="matrix(0.996195 0.0871557 0.0871557 -0.996195 389.695 313.625)" fill="#B7BEE1"/>
<circle cx="5.15026" cy="5.15026" r="5.15026" transform="matrix(0.996195 0.0871557 0.0871557 -0.996195 405.82 315.036)" fill="#B7BEE1"/>
<circle cx="5.15026" cy="5.15026" r="5.15026" transform="matrix(0.996195 0.0871557 0.0871557 -0.996195 395.25 300.817)" fill="#B7BEE1"/>
<circle cx="5.15026" cy="5.15026" r="5.15026" transform="matrix(0.996195 0.0871557 0.0871557 -0.996195 338.207 294.349)" fill="#B7BEE1"/>
<circle cx="5.15026" cy="5.15026" r="5.15026" transform="matrix(0.996195 0.0871557 0.0871557 -0.996195 325.969 299.187)" fill="#B7BEE1"/>
<circle cx="5.15026" cy="5.15026" r="5.15026" transform="matrix(0.996195 0.0871557 0.0871557 -0.996195 350.32 290.978)" fill="#B7BEE1"/>
<circle cx="5.15026" cy="5.15026" r="5.15026" transform="matrix(0.996195 0.0871557 0.0871557 -0.996195 326.406 311.042)" fill="#B7BEE1"/>
<circle cx="5.15026" cy="5.15026" r="5.15026" transform="matrix(0.996195 0.0871557 0.0871557 -0.996195 313.727 304.025)" fill="#B7BEE1"/>
<circle cx="5.15026" cy="5.15026" r="5.15026" transform="matrix(0.996195 0.0871557 0.0871557 -0.996195 315.504 317.474)" fill="#B7BEE1"/>
<circle cx="5.15026" cy="5.15026" r="5.15026" transform="matrix(0.996195 0.0871557 0.0871557 -0.996195 287.652 315.037)" fill="#B7BEE1"/>
<circle cx="5.15026" cy="5.15026" r="5.15026" transform="matrix(0.996195 0.0871557 0.0871557 -0.996195 297.145 324.731)" fill="#B7BEE1"/>
<circle cx="5.15026" cy="5.15026" r="5.15026" transform="matrix(0.996195 0.0871557 0.0871557 -0.996195 309.566 334.68)" fill="#B7BEE1"/>
<circle cx="5.15026" cy="5.15026" r="5.15026" transform="matrix(0.996195 0.0871557 0.0871557 -0.996195 273.816 321.213)" fill="#B7BEE1"/>
<circle cx="5.15026" cy="5.15026" r="5.15026" transform="matrix(0.996195 0.0871557 0.0871557 -0.996195 259.984 327.388)" fill="#B7BEE1"/>
<circle cx="5.15026" cy="5.15026" r="5.15026" transform="matrix(0.996195 0.0871557 0.0871557 -0.996195 247.488 335.157)" fill="#B7BEE1"/>
<circle cx="5.15026" cy="5.15026" r="5.15026" transform="matrix(0.996195 0.0871557 0.0871557 -0.996195 236.457 343.055)" fill="#B7BEE1"/>
<circle cx="5.15026" cy="5.15026" r="5.15026" transform="matrix(0.996195 0.0871557 0.0871557 -0.996195 224.086 349.359)" fill="#B7BEE1"/>
<circle cx="5.15026" cy="5.15026" r="5.15026" transform="matrix(0.996195 0.0871557 0.0871557 -0.996195 212.93 358.722)" fill="#B7BEE1"/>
<circle cx="5.15026" cy="5.15026" r="5.15026" transform="matrix(0.996195 0.0871557 0.0871557 -0.996195 201.898 366.62)" fill="#B7BEE1"/>
<circle cx="5.15026" cy="5.15026" r="5.15026" transform="matrix(0.996195 0.0871557 0.0871557 -0.996195 192.203 376.112)" fill="#B7BEE1"/>
<circle cx="5.15026" cy="5.15026" r="5.15026" transform="matrix(0.996195 0.0871557 0.0871557 -0.996195 182.383 387.069)" fill="#B7BEE1"/>
<circle cx="5.15026" cy="5.15026" r="5.15026" transform="matrix(0.996195 0.0871557 0.0871557 -0.996195 173.898 399.621)" fill="#B7BEE1"/>
<circle cx="5.15026" cy="5.15026" r="5.15026" transform="matrix(0.996195 0.0871557 0.0871557 -0.996195 165.543 410.707)" fill="#B7BEE1"/>
<circle cx="5.15026" cy="5.15026" r="5.15026" transform="matrix(0.996195 0.0871557 0.0871557 -0.996195 157.188 421.793)" fill="#B7BEE1"/>
<circle cx="5.15026" cy="5.15026" r="5.15026" transform="matrix(0.996195 0.0871557 0.0871557 -0.996195 148.703 434.345)" fill="#B7BEE1"/>
<circle cx="5.15026" cy="5.15026" r="5.15026" transform="matrix(0.996195 0.0871557 0.0871557 -0.996195 141.559 448.491)" fill="#B7BEE1"/>
<circle cx="5.15026" cy="5.15026" r="5.15026" transform="matrix(0.996195 0.0871557 0.0871557 -0.996195 133.074 461.043)" fill="#B7BEE1"/>
<circle cx="5.15026" cy="5.15026" r="5.15026" transform="matrix(0.996195 0.0871557 0.0871557 -0.996195 125.93 475.189)" fill="#B7BEE1"/>
<circle cx="5.15026" cy="5.15026" r="5.15026" transform="matrix(0.996195 0.0871557 0.0871557 -0.996195 121.715 489.592)" fill="#B7BEE1"/>
<circle cx="5.15026" cy="5.15026" r="5.15026" transform="matrix(0.996195 0.0871557 0.0871557 -0.996195 117.5 503.994)" fill="#B7BEE1"/>
<circle cx="5.15026" cy="5.15026" r="5.15026" transform="matrix(0.996195 0.0871557 0.0871557 -0.996195 113.285 518.397)" fill="#B7BEE1"/>
<circle cx="5.15026" cy="5.15026" r="5.15026" transform="matrix(0.996195 0.0871557 0.0871557 -0.996195 111.875 534.522)" fill="#B7BEE1"/>
<circle cx="5.15026" cy="5.15026" r="5.15026" transform="matrix(0.996195 0.0871557 0.0871557 -0.996195 110.719 547.715)" fill="#B7BEE1"/>
<circle cx="5.15026" cy="5.15026" r="5.15026" transform="matrix(0.996195 0.0871557 0.0871557 -0.996195 109.438 562.374)" fill="#B7BEE1"/>
<circle cx="5.15026" cy="5.15026" r="5.15026" transform="matrix(0.996195 0.0871557 0.0871557 -0.996195 112.68 575.952)" fill="#B7BEE1"/>
<circle cx="5.15026" cy="5.15026" r="5.15026" transform="matrix(0.996195 0.0871557 0.0871557 -0.996195 117.648 586.726)" fill="#B7BEE1"/>
<circle cx="5.15026" cy="5.15026" r="5.15026" transform="matrix(0.996195 0.0871557 0.0871557 -0.996195 116.492 599.919)" fill="#B7BEE1"/>
<circle cx="5.15026" cy="5.15026" r="5.15026" transform="matrix(0.996195 0.0871557 0.0871557 -0.996195 129.688 601.073)" fill="#B7BEE1"/>
<circle cx="5.15026" cy="5.15026" r="5.15026" transform="matrix(0.996195 0.0871557 0.0871557 -0.996195 142.879 602.228)" fill="#B7BEE1"/>
<circle cx="5.15026" cy="5.15026" r="5.15026" transform="matrix(0.996195 0.0871557 0.0871557 -0.996195 156.074 603.382)" fill="#B7BEE1"/>
<circle cx="5.15026" cy="5.15026" r="5.15026" transform="matrix(0.996195 0.0871557 0.0871557 -0.996195 141.727 615.421)" fill="#B7BEE1"/>
<circle cx="5.15026" cy="5.15026" r="5.15026" transform="matrix(0.996195 0.0871557 0.0871557 -0.996195 140.57 628.614)" fill="#B7BEE1"/>
<circle cx="5.15026" cy="5.15026" r="5.15026" transform="matrix(0.996195 0.0871557 0.0871557 -0.996195 155.23 629.896)" fill="#B7BEE1"/>
<circle cx="5.15026" cy="5.15026" r="5.15026" transform="matrix(0.996195 0.0871557 0.0871557 -0.996195 169.891 631.179)" fill="#B7BEE1"/>
<circle cx="5.15026" cy="5.15026" r="5.15026" transform="matrix(0.996195 0.0871557 0.0871557 -0.996195 161.406 643.731)" fill="#B7BEE1"/>
<circle cx="5.15026" cy="5.15026" r="5.15026" transform="matrix(0.996195 0.0871557 0.0871557 -0.996195 214.82 641.018)" fill="#B7BEE1"/>
<circle cx="5.15026" cy="5.15026" r="5.15026" transform="matrix(0.996195 0.0871557 0.0871557 -0.996195 154.918 616.575)" fill="#B7BEE1"/>
<circle cx="5.15026" cy="5.15026" r="5.15026" transform="matrix(0.996195 0.0871557 0.0871557 -0.996195 169.578 617.857)" fill="#B7BEE1"/>
<circle cx="5.15026" cy="5.15026" r="5.15026" transform="matrix(0.996195 0.0871557 0.0871557 -0.996195 149.898 589.547)" fill="#B7BEE1"/>
<circle cx="5.15026" cy="5.15026" r="5.15026" transform="matrix(0.996195 0.0871557 0.0871557 -0.996195 129.375 587.752)" fill="#B7BEE1"/>
<circle cx="5.15026" cy="5.15026" r="5.15026" transform="matrix(0.996195 0.0871557 0.0871557 -0.996195 125.875 577.106)" fill="#B7BEE1"/>
<circle cx="5.15026" cy="5.15026" r="5.15026" transform="matrix(0.996195 0.0871557 0.0871557 -0.996195 121.164 563.4)" fill="#B7BEE1"/>
<circle cx="5.15026" cy="5.15026" r="5.15026" transform="matrix(0.996195 0.0871557 0.0871557 -0.996195 122.449 548.741)" fill="#B7BEE1"/>
<circle cx="5.15026" cy="5.15026" r="5.15026" transform="matrix(0.996195 0.0871557 0.0871557 -0.996195 123.473 537.014)" fill="#B7BEE1"/>
<circle cx="5.15026" cy="5.15026" r="5.15026" transform="matrix(0.996195 0.0871557 0.0871557 -0.996195 135.199 538.04)" fill="#B7BEE1"/>
<circle cx="5.15026" cy="5.15026" r="5.15026" transform="matrix(0.996195 0.0871557 0.0871557 -0.996195 146.93 539.066)" fill="#B7BEE1"/>
<circle cx="5.15026" cy="5.15026" r="5.15026" transform="matrix(0.996195 0.0871557 0.0871557 -0.996195 158.656 540.092)" fill="#B7BEE1"/>
<circle cx="5.15026" cy="5.15026" r="5.15026" transform="matrix(0.996195 0.0871557 0.0871557 -0.996195 125.012 519.423)" fill="#B7BEE1"/>
<circle cx="5.15026" cy="5.15026" r="5.15026" transform="matrix(0.996195 0.0871557 0.0871557 -0.996195 138.207 520.577)" fill="#B7BEE1"/>
<circle cx="5.15026" cy="5.15026" r="5.15026" transform="matrix(0.996195 0.0871557 0.0871557 -0.996195 151.398 521.731)" fill="#B7BEE1"/>
<circle cx="5.15026" cy="5.15026" r="5.15026" transform="matrix(0.996195 0.0871557 0.0871557 -0.996195 164.594 522.885)" fill="#B7BEE1"/>
<circle cx="5.15026" cy="5.15026" r="5.15026" transform="matrix(0.996195 0.0871557 0.0871557 -0.996195 130.691 505.148)" fill="#B7BEE1"/>
<circle cx="5.15026" cy="5.15026" r="5.15026" transform="matrix(0.996195 0.0871557 0.0871557 -0.996195 145.352 506.431)" fill="#B7BEE1"/>
<circle cx="5.15026" cy="5.15026" r="5.15026" transform="matrix(0.996195 0.0871557 0.0871557 -0.996195 160.012 507.713)" fill="#B7BEE1"/>
<circle cx="5.15026" cy="5.15026" r="5.15026" transform="matrix(0.996195 0.0871557 0.0871557 -0.996195 134.906 490.746)" fill="#B7BEE1"/>
<circle cx="5.15026" cy="5.15026" r="5.15026" transform="matrix(0.996195 0.0871557 0.0871557 -0.996195 139.121 476.343)" fill="#B7BEE1"/>
<circle cx="5.15026" cy="5.15026" r="5.15026" transform="matrix(0.996195 0.0871557 0.0871557 -0.996195 146.27 462.197)" fill="#B7BEE1"/>
<circle cx="5.15026" cy="5.15026" r="5.15026" transform="matrix(0.996195 0.0871557 0.0871557 -0.996195 159.461 463.352)" fill="#B7BEE1"/>
<circle cx="5.15026" cy="5.15026" r="5.15026" transform="matrix(0.996195 0.0871557 0.0871557 -0.996195 152.316 477.498)" fill="#B7BEE1"/>
<circle cx="5.15026" cy="5.15026" r="5.15026" transform="matrix(0.996195 0.0871557 0.0871557 -0.996195 165.508 478.652)" fill="#B7BEE1"/>
<circle cx="5.15026" cy="5.15026" r="5.15026" transform="matrix(0.996195 0.0871557 0.0871557 -0.996195 178.699 479.806)" fill="#B7BEE1"/>
<circle cx="5.15026" cy="5.15026" r="5.15026" transform="matrix(0.996195 0.0871557 0.0871557 -0.996195 193.359 481.089)" fill="#B7BEE1"/>
<circle cx="5.15026" cy="5.15026" r="5.15026" transform="matrix(0.996195 0.0871557 0.0871557 -0.996195 172.652 464.506)" fill="#B7BEE1"/>
<circle cx="5.15026" cy="5.15026" r="5.15026" transform="matrix(0.996195 0.0871557 0.0871557 -0.996195 185.848 465.66)" fill="#B7BEE1"/>
<circle cx="5.15026" cy="5.15026" r="5.15026" transform="matrix(0.996195 0.0871557 0.0871557 -0.996195 199.039 466.814)" fill="#B7BEE1"/>
<circle cx="5.15026" cy="5.15026" r="5.15026" transform="matrix(0.996195 0.0871557 0.0871557 -0.996195 212.234 467.969)" fill="#B7BEE1"/>
<circle cx="5.15026" cy="5.15026" r="5.15026" transform="matrix(0.996195 0.0871557 0.0871557 -0.996195 225.426 469.123)" fill="#B7BEE1"/>
<circle cx="5.15026" cy="5.15026" r="5.15026" transform="matrix(0.996195 0.0871557 0.0871557 -0.996195 154.75 449.645)" fill="#B7BEE1"/>
<circle cx="5.15026" cy="5.15026" r="5.15026" transform="matrix(0.996195 0.0871557 0.0871557 -0.996195 163.234 437.094)" fill="#B7BEE1"/>
<circle cx="5.15026" cy="5.15026" r="5.15026" transform="matrix(0.996195 0.0871557 0.0871557 -0.996195 171.719 424.542)" fill="#B7BEE1"/>
<circle cx="5.15026" cy="5.15026" r="5.15026" transform="matrix(0.996195 0.0871557 0.0871557 -0.996195 180.203 411.99)" fill="#B7BEE1"/>
<circle cx="5.15026" cy="5.15026" r="5.15026" transform="matrix(0.996195 0.0871557 0.0871557 -0.996195 188.688 399.438)" fill="#B7BEE1"/>
<circle cx="5.15026" cy="5.15026" r="5.15026" transform="matrix(0.996195 0.0871557 0.0871557 -0.996195 197.172 386.886)" fill="#B7BEE1"/>
<circle cx="5.15026" cy="5.15026" r="5.15026" transform="matrix(0.996195 0.0871557 0.0871557 -0.996195 209.922 376.185)" fill="#B7BEE1"/>
<circle cx="5.15026" cy="5.15026" r="5.15026" transform="matrix(0.996195 0.0871557 0.0871557 -0.996195 219.488 368.159)" fill="#B7BEE1"/>
<circle cx="5.15026" cy="5.15026" r="5.15026" transform="matrix(0.996195 0.0871557 0.0871557 -0.996195 230.648 358.795)" fill="#B7BEE1"/>
<circle cx="5.15026" cy="5.15026" r="5.15026" transform="matrix(0.996195 0.0871557 0.0871557 -0.996195 243.016 352.492)" fill="#B7BEE1"/>
<circle cx="5.15026" cy="5.15026" r="5.15026" transform="matrix(0.996195 0.0871557 0.0871557 -0.996195 255.512 344.722)" fill="#B7BEE1"/>
<circle cx="5.15026" cy="5.15026" r="5.15026" transform="matrix(0.996195 0.0871557 0.0871557 -0.996195 268.008 336.953)" fill="#B7BEE1"/>
<circle cx="5.15026" cy="5.15026" r="5.15026" transform="matrix(0.996195 0.0871557 0.0871557 -0.996195 280.508 329.183)" fill="#B7BEE1"/>
<circle cx="5.15026" cy="5.15026" r="5.15026" transform="matrix(0.996195 0.0871557 0.0871557 -0.996195 290.125 337.411)" fill="#B7BEE1"/>
<circle cx="5.15026" cy="5.15026" r="5.15026" transform="matrix(0.996195 0.0871557 0.0871557 -0.996195 298.281 345.51)" fill="#B7BEE1"/>
<circle cx="5.15026" cy="5.15026" r="5.15026" transform="matrix(0.996195 0.0871557 0.0871557 -0.996195 263.668 352.821)" fill="#B7BEE1"/>
<circle cx="5.15026" cy="5.15026" r="5.15026" transform="matrix(0.996195 0.0871557 0.0871557 -0.996195 262.641 364.549)" fill="#B7BEE1"/>
<circle cx="5.15026" cy="5.15026" r="5.15026" transform="matrix(0.996195 0.0871557 0.0871557 -0.996195 274.367 365.575)" fill="#B7BEE1"/>
<circle cx="5.15026" cy="5.15026" r="5.15026" transform="matrix(0.996195 0.0871557 0.0871557 -0.996195 282.137 378.071)" fill="#B7BEE1"/>
<circle cx="5.15026" cy="5.15026" r="5.15026" transform="matrix(0.996195 0.0871557 0.0871557 -0.996195 257.914 384.815)" fill="#B7BEE1"/>
<circle cx="5.15026" cy="5.15026" r="5.15026" transform="matrix(0.996195 0.0871557 0.0871557 -0.996195 267.406 394.508)" fill="#B7BEE1"/>
<circle cx="5.15026" cy="5.15026" r="5.15026" transform="matrix(0.996195 0.0871557 0.0871557 -0.996195 280.984 391.264)" fill="#B7BEE1"/>
<circle cx="5.15026" cy="5.15026" r="5.15026" transform="matrix(0.996195 0.0871557 0.0871557 -0.996195 294.176 392.419)" fill="#B7BEE1"/>
<circle cx="5.15026" cy="5.15026" r="5.15026" transform="matrix(0.996195 0.0871557 0.0871557 -0.996195 301.562 409.313)" fill="#B7BEE1"/>
<circle cx="5.15026" cy="5.15026" r="5.15026" transform="matrix(0.996195 0.0871557 0.0871557 -0.996195 286.902 408.031)" fill="#B7BEE1"/>
<circle cx="5.15026" cy="5.15026" r="5.15026" transform="matrix(0.996195 0.0871557 0.0871557 -0.996195 272.242 406.748)" fill="#B7BEE1"/>
<circle cx="5.15026" cy="5.15026" r="5.15026" transform="matrix(0.996195 0.0871557 0.0871557 -0.996195 257.582 405.466)" fill="#B7BEE1"/>
<circle cx="5.15026" cy="5.15026" r="5.15026" transform="matrix(0.996195 0.0871557 0.0871557 -0.996195 242.926 404.183)" fill="#B7BEE1"/>
<circle cx="5.15026" cy="5.15026" r="5.15026" transform="matrix(0.996195 0.0871557 0.0871557 -0.996195 228.266 402.901)" fill="#B7BEE1"/>
<circle cx="5.15026" cy="5.15026" r="5.15026" transform="matrix(0.996195 0.0871557 0.0871557 -0.996195 213.605 401.618)" fill="#B7BEE1"/>
<circle cx="5.15026" cy="5.15026" r="5.15026" transform="matrix(0.996195 0.0871557 0.0871557 -0.996195 200.414 400.464)" fill="#B7BEE1"/>
<circle cx="5.15026" cy="5.15026" r="5.15026" transform="matrix(0.996195 0.0871557 0.0871557 -0.996195 210.363 388.04)" fill="#B7BEE1"/>
<circle cx="5.15026" cy="5.15026" r="5.15026" transform="matrix(0.996195 0.0871557 0.0871557 -0.996195 223.555 389.194)" fill="#B7BEE1"/>
<circle cx="5.15026" cy="5.15026" r="5.15026" transform="matrix(0.996195 0.0871557 0.0871557 -0.996195 236.75 390.349)" fill="#B7BEE1"/>
<circle cx="5.15026" cy="5.15026" r="5.15026" transform="matrix(0.996195 0.0871557 0.0871557 -0.996195 300.406 422.506)" fill="#B7BEE1"/>
<circle cx="5.15026" cy="5.15026" r="5.15026" transform="matrix(0.996195 0.0871557 0.0871557 -0.996195 285.746 421.224)" fill="#B7BEE1"/>
<circle cx="5.15026" cy="5.15026" r="5.15026" transform="matrix(0.996195 0.0871557 0.0871557 -0.996195 269.621 419.813)" fill="#B7BEE1"/>
<circle cx="5.15026" cy="5.15026" r="5.15026" transform="matrix(0.996195 0.0871557 0.0871557 -0.996195 253.496 418.402)" fill="#B7BEE1"/>
<circle cx="5.15026" cy="5.15026" r="5.15026" transform="matrix(0.996195 0.0871557 0.0871557 -0.996195 238.84 417.12)" fill="#B7BEE1"/>
<circle cx="5.15026" cy="5.15026" r="5.15026" transform="matrix(0.996195 0.0871557 0.0871557 -0.996195 224.18 415.837)" fill="#B7BEE1"/>
<circle cx="5.15026" cy="5.15026" r="5.15026" transform="matrix(0.996195 0.0871557 0.0871557 -0.996195 209.52 414.555)" fill="#B7BEE1"/>
<circle cx="5.15026" cy="5.15026" r="5.15026" transform="matrix(0.996195 0.0871557 0.0871557 -0.996195 194.863 413.272)" fill="#B7BEE1"/>
<circle cx="5.15026" cy="5.15026" r="5.15026" transform="matrix(0.996195 0.0871557 0.0871557 -0.996195 270.41 377.045)" fill="#B7BEE1"/>
<circle cx="5.15026" cy="5.15026" r="5.15026" transform="matrix(0.996195 0.0871557 0.0871557 -0.996195 301.359 310.328)" fill="#B7BEE1"/>
<circle cx="4.75598" cy="4.75598" r="4.75598" transform="matrix(0.987688 -0.156434 -0.156434 -0.987688 621.488 295.501)" fill="#B7BEE1"/>
<circle cx="4.75598" cy="4.75598" r="4.75598" transform="matrix(0.987688 -0.156434 -0.156434 -0.987688 633.566 293.588)" fill="#B7BEE1"/>
<circle cx="4.75598" cy="4.75598" r="4.75598" transform="matrix(0.987688 -0.156434 -0.156434 -0.987688 640.848 304.817)" fill="#B7BEE1"/>
<circle cx="4.75598" cy="4.75598" r="4.75598" transform="matrix(0.987688 -0.156434 -0.156434 -0.987688 648.129 316.045)" fill="#B7BEE1"/>
<circle cx="4.75598" cy="4.75598" r="4.75598" transform="matrix(0.987688 -0.156434 -0.156434 -0.987688 655.41 327.274)" fill="#B7BEE1"/>
<circle cx="4.75598" cy="4.75598" r="4.75598" transform="matrix(0.987688 -0.156434 -0.156434 -0.987688 643.332 329.187)" fill="#B7BEE1"/>
<circle cx="4.75598" cy="4.75598" r="4.75598" transform="matrix(0.987688 -0.156434 -0.156434 -0.987688 631.254 331.101)" fill="#B7BEE1"/>
<circle cx="4.75598" cy="4.75598" r="4.75598" transform="matrix(0.987688 -0.156434 -0.156434 -0.987688 650.188 337.732)" fill="#B7BEE1"/>
<circle cx="4.75598" cy="4.75598" r="4.75598" transform="matrix(0.987688 -0.156434 -0.156434 -0.987688 663.051 349.453)" fill="#B7BEE1"/>
<circle cx="4.75598" cy="4.75598" r="4.75598" transform="matrix(0.987688 -0.156434 -0.156434 -0.987688 673.789 347.752)" fill="#B7BEE1"/>
<circle cx="4.75598" cy="4.75598" r="4.75598" transform="matrix(0.987688 -0.156434 -0.156434 -0.987688 684.527 346.052)" fill="#B7BEE1"/>
<circle cx="4.75598" cy="4.75598" r="4.75598" transform="matrix(0.987688 -0.156434 -0.156434 -0.987688 695.262 344.351)" fill="#B7BEE1"/>
<circle cx="4.75598" cy="4.75598" r="4.75598" transform="matrix(0.987688 -0.156434 -0.156434 -0.987688 658.152 292.446)" fill="#B7BEE1"/>
<circle cx="4.75598" cy="4.75598" r="4.75598" transform="matrix(0.987688 -0.156434 -0.156434 -0.987688 646.488 289.883)" fill="#B7BEE1"/>
<circle cx="4.75598" cy="4.75598" r="4.75598" transform="matrix(0.987688 -0.156434 -0.156434 -0.987688 655.488 303.883)" fill="#B7BEE1"/>
<circle cx="4.75598" cy="4.75598" r="4.75598" transform="matrix(0.987688 -0.156434 -0.156434 -0.987688 667.488 306.883)" fill="#B7BEE1"/>
<circle cx="4.75598" cy="4.75598" r="4.75598" transform="matrix(0.987688 -0.156434 -0.156434 -0.987688 670.867 294.559)" fill="#B7BEE1"/>
<circle cx="4.75598" cy="4.75598" r="4.75598" transform="matrix(0.987688 -0.156434 -0.156434 -0.987688 683.586 296.672)" fill="#B7BEE1"/>
<circle cx="4.75598" cy="4.75598" r="4.75598" transform="matrix(0.987688 -0.156434 -0.156434 -0.987688 696.301 298.786)" fill="#B7BEE1"/>
<circle cx="4.75598" cy="4.75598" r="4.75598" transform="matrix(0.987688 -0.156434 -0.156434 -0.987688 689.488 286.883)" fill="#B7BEE1"/>
<circle cx="4.75598" cy="4.75598" r="4.75598" transform="matrix(0.987688 -0.156434 -0.156434 -0.987688 679.488 282.883)" fill="#B7BEE1"/>
<circle cx="4.75598" cy="4.75598" r="4.75598" transform="matrix(0.987688 -0.156434 -0.156434 -0.987688 669.488 278.883)" fill="#B7BEE1"/>
<circle cx="4.75598" cy="4.75598" r="4.75598" transform="matrix(0.987688 -0.156434 -0.156434 -0.987688 659.488 274.883)" fill="#B7BEE1"/>
<circle cx="4.75598" cy="4.75598" r="4.75598" transform="matrix(0.987688 -0.156434 -0.156434 -0.987688 647.488 273.883)" fill="#B7BEE1"/>
<circle cx="4.75598" cy="4.75598" r="4.75598" transform="matrix(0.987688 -0.156434 -0.156434 -0.987688 634.488 273.883)" fill="#B7BEE1"/>
<circle cx="4.75598" cy="4.75598" r="4.75598" transform="matrix(0.987688 -0.156434 -0.156434 -0.987688 621.488 275.883)" fill="#B7BEE1"/>
<circle cx="4.75598" cy="4.75598" r="4.75598" transform="matrix(0.987688 -0.156434 -0.156434 -0.987688 608.488 277.883)" fill="#B7BEE1"/>
<circle cx="4.75598" cy="4.75598" r="4.75598" transform="matrix(0.987688 -0.156434 -0.156434 -0.987688 595.488 279.883)" fill="#B7BEE1"/>
<circle cx="4.75598" cy="4.75598" r="4.75598" transform="matrix(0.987688 -0.156434 -0.156434 -0.987688 582.488 281.883)" fill="#B7BEE1"/>
<circle cx="4.75598" cy="4.75598" r="4.75598" transform="matrix(0.987688 -0.156434 -0.156434 -0.987688 626.488 262.883)" fill="#B7BEE1"/>
<circle cx="4.75598" cy="4.75598" r="4.75598" transform="matrix(0.987688 -0.156434 -0.156434 -0.987688 614.488 258.883)" fill="#B7BEE1"/>
<circle cx="4.75598" cy="4.75598" r="4.75598" transform="matrix(0.987688 -0.156434 -0.156434 -0.987688 601.488 256.883)" fill="#B7BEE1"/>
<circle cx="4.75598" cy="4.75598" r="4.75598" transform="matrix(0.987688 -0.156434 -0.156434 -0.987688 570.488 258.883)" fill="#B7BEE1"/>
<circle cx="4.75598" cy="4.75598" r="4.75598" transform="matrix(0.987688 -0.156434 -0.156434 -0.987688 583.488 266.883)" fill="#B7BEE1"/>
<circle cx="4.75598" cy="4.75598" r="4.75598" transform="matrix(0.987688 -0.156434 -0.156434 -0.987688 598.488 267.883)" fill="#B7BEE1"/>
<circle cx="4.75598" cy="4.75598" r="4.75598" transform="matrix(0.987688 -0.156434 -0.156434 -0.987688 604.488 290.883)" fill="#B7BEE1"/>
<circle cx="4.75598" cy="4.75598" r="4.75598" transform="matrix(0.987688 -0.156434 -0.156434 -0.987688 741.16 304.062)" fill="#B7BEE1"/>
<circle cx="4.75598" cy="4.75598" r="4.75598" transform="matrix(0.987688 -0.156434 -0.156434 -0.987688 754.09 307.518)" fill="#B7BEE1"/>
<circle cx="4.75598" cy="4.75598" r="4.75598" transform="matrix(0.987688 -0.156434 -0.156434 -0.987688 767.234 312.315)" fill="#B7BEE1"/>
<circle cx="4.75598" cy="4.75598" r="4.75598" transform="matrix(0.987688 -0.156434 -0.156434 -0.987688 780.375 317.113)" fill="#B7BEE1"/>
<circle cx="4.75598" cy="4.75598" r="4.75598" transform="matrix(0.987688 -0.156434 -0.156434 -0.987688 793.73 323.252)" fill="#B7BEE1"/>
<circle cx="4.75598" cy="4.75598" r="4.75598" transform="matrix(0.987688 -0.156434 -0.156434 -0.987688 805.742 329.604)" fill="#B7BEE1"/>
<circle cx="4.75598" cy="4.75598" r="4.75598" transform="matrix(0.987688 -0.156434 -0.156434 -0.987688 817.754 335.957)" fill="#B7BEE1"/>
<circle cx="4.75598" cy="4.75598" r="4.75598" transform="matrix(0.987688 -0.156434 -0.156434 -0.987688 828.637 343.863)" fill="#B7BEE1"/>
<circle cx="4.75598" cy="4.75598" r="4.75598" transform="matrix(0.987688 -0.156434 -0.156434 -0.987688 838.18 351.983)" fill="#B7BEE1"/>
<circle cx="4.75598" cy="4.75598" r="4.75598" transform="matrix(0.987688 -0.156434 -0.156434 -0.987688 847.719 360.102)" fill="#B7BEE1"/>
<circle cx="4.75598" cy="4.75598" r="4.75598" transform="matrix(0.987688 -0.156434 -0.156434 -0.987688 857.258 368.222)" fill="#B7BEE1"/>
<circle cx="4.75598" cy="4.75598" r="4.75598" transform="matrix(0.987688 -0.156434 -0.156434 -0.987688 867.012 377.683)" fill="#B7BEE1"/>
<circle cx="4.75598" cy="4.75598" r="4.75598" transform="matrix(0.987688 -0.156434 -0.156434 -0.987688 860.875 391.038)" fill="#B7BEE1"/>
<circle cx="4.75598" cy="4.75598" r="4.75598" transform="matrix(0.987688 -0.156434 -0.156434 -0.987688 852.754 400.578)" fill="#B7BEE1"/>
<circle cx="4.75598" cy="4.75598" r="4.75598" transform="matrix(0.987688 -0.156434 -0.156434 -0.987688 841.738 409.202)" fill="#B7BEE1"/>
<circle cx="4.75598" cy="4.75598" r="4.75598" transform="matrix(0.987688 -0.156434 -0.156434 -0.987688 830.723 417.826)" fill="#B7BEE1"/>
<circle cx="4.75598" cy="4.75598" r="4.75598" transform="matrix(0.987688 -0.156434 -0.156434 -0.987688 808.902 436.416)" fill="#B7BEE1"/>
<circle cx="4.75598" cy="4.75598" r="4.75598" transform="matrix(0.987688 -0.156434 -0.156434 -0.987688 825.008 433.865)" fill="#B7BEE1"/>
<circle cx="4.75598" cy="4.75598" r="4.75598" transform="matrix(0.987688 -0.156434 -0.156434 -0.987688 839.77 431.526)" fill="#B7BEE1"/>
<circle cx="4.75598" cy="4.75598" r="4.75598" transform="matrix(0.987688 -0.156434 -0.156434 -0.987688 855.875 428.976)" fill="#B7BEE1"/>
<circle cx="4.75598" cy="4.75598" r="4.75598" transform="matrix(0.987688 -0.156434 -0.156434 -0.987688 870.641 426.637)" fill="#B7BEE1"/>
<circle cx="4.75598" cy="4.75598" r="4.75598" transform="matrix(0.987688 -0.156434 -0.156434 -0.987688 886.746 424.086)" fill="#B7BEE1"/>
<circle cx="4.75598" cy="4.75598" r="4.75598" transform="matrix(0.987688 -0.156434 -0.156434 -0.987688 825.789 447.499)" fill="#B7BEE1"/>
<circle cx="4.75598" cy="4.75598" r="4.75598" transform="matrix(0.987688 -0.156434 -0.156434 -0.987688 839.211 445.373)" fill="#B7BEE1"/>
<circle cx="4.75598" cy="4.75598" r="4.75598" transform="matrix(0.987688 -0.156434 -0.156434 -0.987688 852.633 443.247)" fill="#B7BEE1"/>
<circle cx="4.75598" cy="4.75598" r="4.75598" transform="matrix(0.987688 -0.156434 -0.156434 -0.987688 866.055 441.121)" fill="#B7BEE1"/>
<circle cx="4.75598" cy="4.75598" r="4.75598" transform="matrix(0.987688 -0.156434 -0.156434 -0.987688 879.477 438.996)" fill="#B7BEE1"/>
<circle cx="4.75598" cy="4.75598" r="4.75598" transform="matrix(0.987688 -0.156434 -0.156434 -0.987688 892.898 436.87)" fill="#B7BEE1"/>
<circle cx="4.75598" cy="4.75598" r="4.75598" transform="matrix(0.987688 -0.156434 -0.156434 -0.987688 879.465 412.858)" fill="#B7BEE1"/>
<circle cx="4.75598" cy="4.75598" r="4.75598" transform="matrix(0.987688 -0.156434 -0.156434 -0.987688 862.508 410.04)" fill="#B7BEE1"/>
<circle cx="4.75598" cy="4.75598" r="4.75598" transform="matrix(0.987688 -0.156434 -0.156434 -0.987688 852.621 417.109)" fill="#B7BEE1"/>
<circle cx="4.75598" cy="4.75598" r="4.75598" transform="matrix(0.987688 -0.156434 -0.156434 -0.987688 872.18 401.629)" fill="#B7BEE1"/>
<circle cx="4.75598" cy="4.75598" r="4.75598" transform="matrix(0.987688 -0.156434 -0.156434 -0.987688 875.637 388.699)" fill="#B7BEE1"/>
<circle cx="4.75598" cy="4.75598" r="4.75598" transform="matrix(0.987688 -0.156434 -0.156434 -0.987688 884.262 399.716)" fill="#B7BEE1"/>
<circle cx="4.75598" cy="4.75598" r="4.75598" transform="matrix(0.987688 -0.156434 -0.156434 -0.987688 891.328 409.602)" fill="#B7BEE1"/>
<circle cx="4.75598" cy="4.75598" r="4.75598" transform="matrix(0.987688 -0.156434 -0.156434 -0.987688 898.609 420.831)" fill="#B7BEE1"/>
<circle cx="4.75598" cy="4.75598" r="4.75598" transform="matrix(0.987688 -0.156434 -0.156434 -0.987688 905.895 432.06)" fill="#B7BEE1"/>
<circle cx="4.75598" cy="4.75598" r="4.75598" transform="matrix(0.987688 -0.156434 -0.156434 -0.987688 913.176 443.289)" fill="#B7BEE1"/>
<circle cx="4.75598" cy="4.75598" r="4.75598" transform="matrix(0.987688 -0.156434 -0.156434 -0.987688 919.328 456.072)" fill="#B7BEE1"/>
<circle cx="4.75598" cy="4.75598" r="4.75598" transform="matrix(0.987688 -0.156434 -0.156434 -0.987688 925.477 468.856)" fill="#B7BEE1"/>
<circle cx="4.75598" cy="4.75598" r="4.75598" transform="matrix(0.987688 -0.156434 -0.156434 -0.987688 929.371 484.749)" fill="#B7BEE1"/>
<circle cx="4.75598" cy="4.75598" r="4.75598" transform="matrix(0.987688 -0.156434 -0.156434 -0.987688 932.922 500.854)" fill="#B7BEE1"/>
<circle cx="4.75598" cy="4.75598" r="4.75598" transform="matrix(0.987688 -0.156434 -0.156434 -0.987688 935.047 514.275)" fill="#B7BEE1"/>
<circle cx="4.75598" cy="4.75598" r="4.75598" transform="matrix(0.987688 -0.156434 -0.156434 -0.987688 938.172 527.697)" fill="#B7BEE1"/>
<circle cx="4.75598" cy="4.75598" r="4.75598" transform="matrix(0.987688 -0.156434 -0.156434 -0.987688 942.301 541.118)" fill="#B7BEE1"/>
<circle cx="4.75598" cy="4.75598" r="4.75598" transform="matrix(0.987688 -0.156434 -0.156434 -0.987688 744.543 577.309)" fill="#B7BEE1"/>
<circle cx="4.75598" cy="4.75598" r="4.75598" transform="matrix(0.987688 -0.156434 -0.156434 -0.987688 755.625 560.42)" fill="#B7BEE1"/>
<circle cx="4.75598" cy="4.75598" r="4.75598" transform="matrix(0.987688 -0.156434 -0.156434 -0.987688 753.285 545.657)" fill="#B7BEE1"/>
<circle cx="4.75598" cy="4.75598" r="4.75598" transform="matrix(0.987688 -0.156434 -0.156434 -0.987688 764.371 528.768)" fill="#B7BEE1"/>
<circle cx="4.75598" cy="4.75598" r="4.75598" transform="matrix(0.987688 -0.156434 -0.156434 -0.987688 775.453 511.879)" fill="#B7BEE1"/>
<circle cx="4.75598" cy="4.75598" r="4.75598" transform="matrix(0.987688 -0.156434 -0.156434 -0.987688 782.723 496.969)" fill="#B7BEE1"/>
<circle cx="4.75598" cy="4.75598" r="4.75598" transform="matrix(0.987688 -0.156434 -0.156434 -0.987688 767.176 485.674)" fill="#B7BEE1"/>
<circle cx="4.75598" cy="4.75598" r="4.75598" transform="matrix(0.987688 -0.156434 -0.156434 -0.987688 780.383 482.206)" fill="#B7BEE1"/>
<circle cx="4.75598" cy="4.75598" r="4.75598" transform="matrix(0.987688 -0.156434 -0.156434 -0.987688 793.805 480.08)" fill="#B7BEE1"/>
<circle cx="4.75598" cy="4.75598" r="4.75598" transform="matrix(0.987688 -0.156434 -0.156434 -0.987688 807.227 477.955)" fill="#B7BEE1"/>
<circle cx="4.75598" cy="4.75598" r="4.75598" transform="matrix(0.987688 -0.156434 -0.156434 -0.987688 820.648 475.829)" fill="#B7BEE1"/>
<circle cx="4.75598" cy="4.75598" r="4.75598" transform="matrix(0.987688 -0.156434 -0.156434 -0.987688 834.066 473.703)" fill="#B7BEE1"/>
<circle cx="4.75598" cy="4.75598" r="4.75598" transform="matrix(0.987688 -0.156434 -0.156434 -0.987688 847.488 471.578)" fill="#B7BEE1"/>
<circle cx="4.75598" cy="4.75598" r="4.75598" transform="matrix(0.987688 -0.156434 -0.156434 -0.987688 884.723 480.814)" fill="#B7BEE1"/>
<circle cx="4.75598" cy="4.75598" r="4.75598" transform="matrix(0.987688 -0.156434 -0.156434 -0.987688 912.379 472.583)" fill="#B7BEE1"/>
<circle cx="4.75598" cy="4.75598" r="4.75598" transform="matrix(0.987688 -0.156434 -0.156434 -0.987688 899.727 477.18)" fill="#B7BEE1"/>
<circle cx="4.75598" cy="4.75598" r="4.75598" transform="matrix(0.987688 -0.156434 -0.156434 -0.987688 796.145 494.844)" fill="#B7BEE1"/>
<circle cx="4.75598" cy="4.75598" r="4.75598" transform="matrix(0.987688 -0.156434 -0.156434 -0.987688 809.562 492.718)" fill="#B7BEE1"/>
<circle cx="4.75598" cy="4.75598" r="4.75598" transform="matrix(0.987688 -0.156434 -0.156434 -0.987688 822.984 490.592)" fill="#B7BEE1"/>
<circle cx="4.75598" cy="4.75598" r="4.75598" transform="matrix(0.987688 -0.156434 -0.156434 -0.987688 836.406 488.467)" fill="#B7BEE1"/>
<circle cx="4.75598" cy="4.75598" r="4.75598" transform="matrix(0.987688 -0.156434 -0.156434 -0.987688 849.828 486.341)" fill="#B7BEE1"/>
<circle cx="4.75598" cy="4.75598" r="4.75598" transform="matrix(0.987688 -0.156434 -0.156434 -0.987688 864.031 497.849)" fill="#B7BEE1"/>
<circle cx="4.75598" cy="4.75598" r="4.75598" transform="matrix(0.987688 -0.156434 -0.156434 -0.987688 881.48 495.085)" fill="#B7BEE1"/>
<circle cx="4.75598" cy="4.75598" r="4.75598" transform="matrix(0.987688 -0.156434 -0.156434 -0.987688 893.559 493.172)" fill="#B7BEE1"/>
<circle cx="4.75598" cy="4.75598" r="4.75598" transform="matrix(0.987688 -0.156434 -0.156434 -0.987688 905.637 491.259)" fill="#B7BEE1"/>
<circle cx="4.75598" cy="4.75598" r="4.75598" transform="matrix(0.987688 -0.156434 -0.156434 -0.987688 918.719 487.346)" fill="#B7BEE1"/>
<circle cx="4.75598" cy="4.75598" r="4.75598" transform="matrix(0.987688 -0.156434 -0.156434 -0.987688 787.531 509.965)" fill="#B7BEE1"/>
<circle cx="4.75598" cy="4.75598" r="4.75598" transform="matrix(0.987688 -0.156434 -0.156434 -0.987688 776.449 526.854)" fill="#B7BEE1"/>
<circle cx="4.75598" cy="4.75598" r="4.75598" transform="matrix(0.987688 -0.156434 -0.156434 -0.987688 777.445 541.83)" fill="#B7BEE1"/>
<circle cx="4.75598" cy="4.75598" r="4.75598" transform="matrix(0.987688 -0.156434 -0.156434 -0.987688 789.523 539.917)" fill="#B7BEE1"/>
<circle cx="4.75598" cy="4.75598" r="4.75598" transform="matrix(0.987688 -0.156434 -0.156434 -0.987688 801.602 538.004)" fill="#B7BEE1"/>
<circle cx="4.75598" cy="4.75598" r="4.75598" transform="matrix(0.987688 -0.156434 -0.156434 -0.987688 813.684 536.091)" fill="#B7BEE1"/>
<circle cx="4.75598" cy="4.75598" r="4.75598" transform="matrix(0.987688 -0.156434 -0.156434 -0.987688 825.762 534.178)" fill="#B7BEE1"/>
<circle cx="4.75598" cy="4.75598" r="4.75598" transform="matrix(0.987688 -0.156434 -0.156434 -0.987688 837.84 532.265)" fill="#B7BEE1"/>
<circle cx="4.75598" cy="4.75598" r="4.75598" transform="matrix(0.987688 -0.156434 -0.156434 -0.987688 849.918 530.352)" fill="#B7BEE1"/>
<circle cx="4.75598" cy="4.75598" r="4.75598" transform="matrix(0.987688 -0.156434 -0.156434 -0.987688 862 528.438)" fill="#B7BEE1"/>
<circle cx="4.75598" cy="4.75598" r="4.75598" transform="matrix(0.987688 -0.156434 -0.156434 -0.987688 874.078 526.525)" fill="#B7BEE1"/>
<circle cx="4.75598" cy="4.75598" r="4.75598" transform="matrix(0.987688 -0.156434 -0.156434 -0.987688 886.156 524.612)" fill="#B7BEE1"/>
<circle cx="4.75598" cy="4.75598" r="4.75598" transform="matrix(0.987688 -0.156434 -0.156434 -0.987688 898.234 522.699)" fill="#B7BEE1"/>
<circle cx="4.75598" cy="4.75598" r="4.75598" transform="matrix(0.987688 -0.156434 -0.156434 -0.987688 911.316 520.786)" fill="#B7BEE1"/>
<circle cx="4.75598" cy="4.75598" r="4.75598" transform="matrix(0.987688 -0.156434 -0.156434 -0.987688 923.395 517.873)" fill="#B7BEE1"/>
<circle cx="4.75598" cy="4.75598" r="4.75598" transform="matrix(0.987688 -0.156434 -0.156434 -0.987688 765.367 543.744)" fill="#B7BEE1"/>
<circle cx="4.75598" cy="4.75598" r="4.75598" transform="matrix(0.987688 -0.156434 -0.156434 -0.987688 767.703 558.507)" fill="#B7BEE1"/>
<circle cx="4.75598" cy="4.75598" r="4.75598" transform="matrix(0.987688 -0.156434 -0.156434 -0.987688 757.965 575.183)" fill="#B7BEE1"/>
<circle cx="4.75598" cy="4.75598" r="4.75598" transform="matrix(0.987688 -0.156434 -0.156434 -0.987688 771.383 573.058)" fill="#B7BEE1"/>
<circle cx="4.75598" cy="4.75598" r="4.75598" transform="matrix(0.987688 -0.156434 -0.156434 -0.987688 784.805 570.932)" fill="#B7BEE1"/>
<circle cx="4.75598" cy="4.75598" r="4.75598" transform="matrix(0.987688 -0.156434 -0.156434 -0.987688 798.227 568.806)" fill="#B7BEE1"/>
<circle cx="4.75598" cy="4.75598" r="4.75598" transform="matrix(0.987688 -0.156434 -0.156434 -0.987688 811.648 566.681)" fill="#B7BEE1"/>
<circle cx="4.75598" cy="4.75598" r="4.75598" transform="matrix(0.987688 -0.156434 -0.156434 -0.987688 865.332 558.178)" fill="#B7BEE1"/>
<circle cx="4.75598" cy="4.75598" r="4.75598" transform="matrix(0.987688 -0.156434 -0.156434 -0.987688 878.754 556.052)" fill="#B7BEE1"/>
<circle cx="4.75598" cy="4.75598" r="4.75598" transform="matrix(0.987688 -0.156434 -0.156434 -0.987688 892.176 553.926)" fill="#B7BEE1"/>
<circle cx="4.75598" cy="4.75598" r="4.75598" transform="matrix(0.987688 -0.156434 -0.156434 -0.987688 905.598 551.801)" fill="#B7BEE1"/>
<circle cx="4.75598" cy="4.75598" r="4.75598" transform="matrix(0.987688 -0.156434 -0.156434 -0.987688 919.02 549.675)" fill="#B7BEE1"/>
<circle cx="4.75598" cy="4.75598" r="4.75598" transform="matrix(0.987688 -0.156434 -0.156434 -0.987688 779.781 556.594)" fill="#B7BEE1"/>
<circle cx="4.75598" cy="4.75598" r="4.75598" transform="matrix(0.987688 -0.156434 -0.156434 -0.987688 791.863 554.681)" fill="#B7BEE1"/>
<circle cx="4.75598" cy="4.75598" r="4.75598" transform="matrix(0.987688 -0.156434 -0.156434 -0.987688 803.941 552.767)" fill="#B7BEE1"/>
<circle cx="4.75598" cy="4.75598" r="4.75598" transform="matrix(0.987688 -0.156434 -0.156434 -0.987688 816.02 550.854)" fill="#B7BEE1"/>
<circle cx="4.75598" cy="4.75598" r="4.75598" transform="matrix(0.987688 -0.156434 -0.156434 -0.987688 828.098 548.941)" fill="#B7BEE1"/>
<circle cx="4.75598" cy="4.75598" r="4.75598" transform="matrix(0.987688 -0.156434 -0.156434 -0.987688 840.18 547.028)" fill="#B7BEE1"/>
<circle cx="4.75598" cy="4.75598" r="4.75598" transform="matrix(0.987688 -0.156434 -0.156434 -0.987688 852.258 545.115)" fill="#B7BEE1"/>
<circle cx="4.75598" cy="4.75598" r="4.75598" transform="matrix(0.987688 -0.156434 -0.156434 -0.987688 876.414 541.289)" fill="#B7BEE1"/>
<circle cx="4.75598" cy="4.75598" r="4.75598" transform="matrix(0.987688 -0.156434 -0.156434 -0.987688 888.496 539.375)" fill="#B7BEE1"/>
<circle cx="4.75598" cy="4.75598" r="4.75598" transform="matrix(0.987688 -0.156434 -0.156434 -0.987688 900.574 537.462)" fill="#B7BEE1"/>
<circle cx="4.75598" cy="4.75598" r="4.75598" transform="matrix(0.987688 -0.156434 -0.156434 -0.987688 912.652 535.549)" fill="#B7BEE1"/>
<circle cx="4.75598" cy="4.75598" r="4.75598" transform="matrix(0.987688 -0.156434 -0.156434 -0.987688 925.73 531.636)" fill="#B7BEE1"/>
<circle cx="4.75598" cy="4.75598" r="4.75598" transform="matrix(0.987688 -0.156434 -0.156434 -0.987688 789.871 524.729)" fill="#B7BEE1"/>
<circle cx="4.75598" cy="4.75598" r="4.75598" transform="matrix(0.987688 -0.156434 -0.156434 -0.987688 801.949 522.816)" fill="#B7BEE1"/>
<circle cx="4.75598" cy="4.75598" r="4.75598" transform="matrix(0.987688 -0.156434 -0.156434 -0.987688 814.027 520.903)" fill="#B7BEE1"/>
<circle cx="4.75598" cy="4.75598" r="4.75598" transform="matrix(0.987688 -0.156434 -0.156434 -0.987688 826.105 518.989)" fill="#B7BEE1"/>
<circle cx="4.75598" cy="4.75598" r="4.75598" transform="matrix(0.987688 -0.156434 -0.156434 -0.987688 838.188 517.076)" fill="#B7BEE1"/>
<circle cx="4.75598" cy="4.75598" r="4.75598" transform="matrix(0.987688 -0.156434 -0.156434 -0.987688 850.266 515.163)" fill="#B7BEE1"/>
<circle cx="4.75598" cy="4.75598" r="4.75598" transform="matrix(0.987688 -0.156434 -0.156434 -0.987688 862.344 513.25)" fill="#B7BEE1"/>
<circle cx="4.75598" cy="4.75598" r="4.75598" transform="matrix(0.987688 -0.156434 -0.156434 -0.987688 874.422 511.337)" fill="#B7BEE1"/>
<circle cx="4.75598" cy="4.75598" r="4.75598" transform="matrix(0.987688 -0.156434 -0.156434 -0.987688 886.504 509.424)" fill="#B7BEE1"/>
<circle cx="4.75598" cy="4.75598" r="4.75598" transform="matrix(0.987688 -0.156434 -0.156434 -0.987688 898.582 507.51)" fill="#B7BEE1"/>
<circle cx="4.75598" cy="4.75598" r="4.75598" transform="matrix(0.987688 -0.156434 -0.156434 -0.987688 910.66 505.597)" fill="#B7BEE1"/>
<circle cx="4.75598" cy="4.75598" r="4.75598" transform="matrix(0.987688 -0.156434 -0.156434 -0.987688 922.398 502.897)" fill="#B7BEE1"/>
<circle cx="4.75598" cy="4.75598" r="4.75598" transform="matrix(0.987688 -0.156434 -0.156434 -0.987688 799.609 508.052)" fill="#B7BEE1"/>
<circle cx="4.75598" cy="4.75598" r="4.75598" transform="matrix(0.987688 -0.156434 -0.156434 -0.987688 811.691 506.139)" fill="#B7BEE1"/>
<circle cx="4.75598" cy="4.75598" r="4.75598" transform="matrix(0.987688 -0.156434 -0.156434 -0.987688 825.109 504.014)" fill="#B7BEE1"/>
<circle cx="4.75598" cy="4.75598" r="4.75598" transform="matrix(0.987688 -0.156434 -0.156434 -0.987688 837.191 502.1)" fill="#B7BEE1"/>
<circle cx="4.75598" cy="4.75598" r="4.75598" transform="matrix(0.987688 -0.156434 -0.156434 -0.987688 850.613 499.975)" fill="#B7BEE1"/>
<circle cx="4.75598" cy="4.75598" r="4.75598" transform="matrix(0.987688 -0.156434 -0.156434 -0.987688 860.91 469.452)" fill="#B7BEE1"/>
<circle cx="4.75598" cy="4.75598" r="4.75598" transform="matrix(0.987688 -0.156434 -0.156434 -0.987688 877.016 466.901)" fill="#B7BEE1"/>
<circle cx="4.75598" cy="4.75598" r="4.75598" transform="matrix(0.987688 -0.156434 -0.156434 -0.987688 890.438 464.775)" fill="#B7BEE1"/>
<circle cx="4.75598" cy="4.75598" r="4.75598" transform="matrix(0.987688 -0.156434 -0.156434 -0.987688 905.199 462.437)" fill="#B7BEE1"/>
<circle cx="4.75598" cy="4.75598" r="4.75598" transform="matrix(0.987688 -0.156434 -0.156434 -0.987688 764.836 470.911)" fill="#B7BEE1"/>
<circle cx="4.75598" cy="4.75598" r="4.75598" transform="matrix(0.987688 -0.156434 -0.156434 -0.987688 776.914 468.997)" fill="#B7BEE1"/>
<circle cx="4.75598" cy="4.75598" r="4.75598" transform="matrix(0.987688 -0.156434 -0.156434 -0.987688 788.996 467.084)" fill="#B7BEE1"/>
<circle cx="4.75598" cy="4.75598" r="4.75598" transform="matrix(0.987688 -0.156434 -0.156434 -0.987688 801.074 465.171)" fill="#B7BEE1"/>
<circle cx="4.75598" cy="4.75598" r="4.75598" transform="matrix(0.987688 -0.156434 -0.156434 -0.987688 813.152 463.258)" fill="#B7BEE1"/>
<circle cx="4.75598" cy="4.75598" r="4.75598" transform="matrix(0.987688 -0.156434 -0.156434 -0.987688 825.23 461.345)" fill="#B7BEE1"/>
<circle cx="4.75598" cy="4.75598" r="4.75598" transform="matrix(0.987688 -0.156434 -0.156434 -0.987688 837.312 459.432)" fill="#B7BEE1"/>
<circle cx="4.75598" cy="4.75598" r="4.75598" transform="matrix(0.987688 -0.156434 -0.156434 -0.987688 849.391 457.519)" fill="#B7BEE1"/>
<circle cx="4.75598" cy="4.75598" r="4.75598" transform="matrix(0.987688 -0.156434 -0.156434 -0.987688 861.469 455.605)" fill="#B7BEE1"/>
<circle cx="4.75598" cy="4.75598" r="4.75598" transform="matrix(0.987688 -0.156434 -0.156434 -0.987688 873.547 453.692)" fill="#B7BEE1"/>
<circle cx="4.75598" cy="4.75598" r="4.75598" transform="matrix(0.987688 -0.156434 -0.156434 -0.987688 886.969 451.567)" fill="#B7BEE1"/>
<circle cx="4.75598" cy="4.75598" r="4.75598" transform="matrix(0.987688 -0.156434 -0.156434 -0.987688 900.391 449.441)" fill="#B7BEE1"/>
<circle cx="4.75598" cy="4.75598" r="4.75598" transform="matrix(0.987688 -0.156434 -0.156434 -0.987688 758.684 458.127)" fill="#B7BEE1"/>
<circle cx="4.75598" cy="4.75598" r="4.75598" transform="matrix(0.987688 -0.156434 -0.156434 -0.987688 772.105 456.001)" fill="#B7BEE1"/>
<circle cx="4.75598" cy="4.75598" r="4.75598" transform="matrix(0.987688 -0.156434 -0.156434 -0.987688 785.527 453.876)" fill="#B7BEE1"/>
<circle cx="4.75598" cy="4.75598" r="4.75598" transform="matrix(0.987688 -0.156434 -0.156434 -0.987688 798.949 451.75)" fill="#B7BEE1"/>
<circle cx="4.75598" cy="4.75598" r="4.75598" transform="matrix(0.987688 -0.156434 -0.156434 -0.987688 812.371 449.624)" fill="#B7BEE1"/>
<circle cx="4.75598" cy="4.75598" r="4.75598" transform="matrix(0.987688 -0.156434 -0.156434 -0.987688 788.77 439.604)" fill="#B7BEE1"/>
<circle cx="4.75598" cy="4.75598" r="4.75598" transform="matrix(0.987688 -0.156434 -0.156434 -0.987688 784.172 427.95)" fill="#B7BEE1"/>
<circle cx="4.75598" cy="4.75598" r="4.75598" transform="matrix(0.987688 -0.156434 -0.156434 -0.987688 779.574 416.296)" fill="#B7BEE1"/>
<circle cx="4.75598" cy="4.75598" r="4.75598" transform="matrix(0.987688 -0.156434 -0.156434 -0.987688 774.977 404.642)" fill="#B7BEE1"/>
<circle cx="4.75598" cy="4.75598" r="4.75598" transform="matrix(0.987688 -0.156434 -0.156434 -0.987688 762.898 406.555)" fill="#B7BEE1"/>
<circle cx="4.75598" cy="4.75598" r="4.75598" transform="matrix(0.987688 -0.156434 -0.156434 -0.987688 750.82 408.469)" fill="#B7BEE1"/>
<circle cx="4.75598" cy="4.75598" r="4.75598" transform="matrix(0.987688 -0.156434 -0.156434 -0.987688 738.738 410.382)" fill="#B7BEE1"/>
<circle cx="4.75598" cy="4.75598" r="4.75598" transform="matrix(0.987688 -0.156434 -0.156434 -0.987688 736.828 398.303)" fill="#B7BEE1"/>
<circle cx="4.75598" cy="4.75598" r="4.75598" transform="matrix(0.987688 -0.156434 -0.156434 -0.987688 742.051 387.845)" fill="#B7BEE1"/>
<circle cx="4.75598" cy="4.75598" r="4.75598" transform="matrix(0.987688 -0.156434 -0.156434 -0.987688 734.77 376.616)" fill="#B7BEE1"/>
<circle cx="4.75598" cy="4.75598" r="4.75598" transform="matrix(0.987688 -0.156434 -0.156434 -0.987688 746.633 373.361)" fill="#B7BEE1"/>
<circle cx="4.75598" cy="4.75598" r="4.75598" transform="matrix(0.987688 -0.156434 -0.156434 -0.987688 753.918 384.59)" fill="#B7BEE1"/>
<circle cx="4.75598" cy="4.75598" r="4.75598" transform="matrix(0.987688 -0.156434 -0.156434 -0.987688 759.645 394.689)" fill="#B7BEE1"/>
<circle cx="4.75598" cy="4.75598" r="4.75598" transform="matrix(0.987688 -0.156434 -0.156434 -0.987688 735.727 313.178)" fill="#B7BEE1"/>
<circle cx="4.75598" cy="4.75598" r="4.75598" transform="matrix(0.987688 -0.156434 -0.156434 -0.987688 748.867 317.975)" fill="#B7BEE1"/>
<circle cx="4.75598" cy="4.75598" r="4.75598" transform="matrix(0.987688 -0.156434 -0.156434 -0.987688 762.012 322.773)" fill="#B7BEE1"/>
<circle cx="4.75598" cy="4.75598" r="4.75598" transform="matrix(0.987688 -0.156434 -0.156434 -0.987688 764.137 336.194)" fill="#B7BEE1"/>
<circle cx="4.75598" cy="4.75598" r="4.75598" transform="matrix(0.987688 -0.156434 -0.156434 -0.987688 767.391 348.061)" fill="#B7BEE1"/>
<circle cx="4.75598" cy="4.75598" r="4.75598" transform="matrix(0.987688 -0.156434 -0.156434 -0.987688 777.277 340.991)" fill="#B7BEE1"/>
<circle cx="4.75598" cy="4.75598" r="4.75598" transform="matrix(0.987688 -0.156434 -0.156434 -0.987688 788.16 348.898)" fill="#B7BEE1"/>
<circle cx="4.75598" cy="4.75598" r="4.75598" transform="matrix(0.987688 -0.156434 -0.156434 -0.987688 801.516 355.038)" fill="#B7BEE1"/>
<circle cx="4.75598" cy="4.75598" r="4.75598" transform="matrix(0.987688 -0.156434 -0.156434 -0.987688 787.602 362.745)" fill="#B7BEE1"/>
<circle cx="4.75598" cy="4.75598" r="4.75598" transform="matrix(0.987688 -0.156434 -0.156434 -0.987688 811.055 363.157)" fill="#B7BEE1"/>
<circle cx="4.75598" cy="4.75598" r="4.75598" transform="matrix(0.987688 -0.156434 -0.156434 -0.987688 799.828 370.439)" fill="#B7BEE1"/>
<circle cx="4.75598" cy="4.75598" r="4.75598" transform="matrix(0.987688 -0.156434 -0.156434 -0.987688 823.281 370.852)" fill="#B7BEE1"/>
<circle cx="4.75598" cy="4.75598" r="4.75598" transform="matrix(0.987688 -0.156434 -0.156434 -0.987688 831.48 379.184)" fill="#B7BEE1"/>
<circle cx="4.75598" cy="4.75598" r="4.75598" transform="matrix(0.987688 -0.156434 -0.156434 -0.987688 821.805 387.595)" fill="#B7BEE1"/>
<circle cx="4.75598" cy="4.75598" r="4.75598" transform="matrix(0.987688 -0.156434 -0.156434 -0.987688 811.918 394.664)" fill="#B7BEE1"/>
<circle cx="4.75598" cy="4.75598" r="4.75598" transform="matrix(0.987688 -0.156434 -0.156434 -0.987688 800.477 400.603)" fill="#B7BEE1"/>
<circle cx="4.75598" cy="4.75598" r="4.75598" transform="matrix(0.987688 -0.156434 -0.156434 -0.987688 792.785 412.828)" fill="#B7BEE1"/>
<circle cx="4.75598" cy="4.75598" r="4.75598" transform="matrix(0.987688 -0.156434 -0.156434 -0.987688 842.789 389.775)" fill="#B7BEE1"/>
<circle cx="4.75598" cy="4.75598" r="4.75598" transform="matrix(0.987688 -0.156434 -0.156434 -0.987688 833.113 398.186)" fill="#B7BEE1"/>
<circle cx="4.75598" cy="4.75598" r="4.75598" transform="matrix(0.987688 -0.156434 -0.156434 -0.987688 823.441 406.597)" fill="#B7BEE1"/>
<circle cx="4.75598" cy="4.75598" r="4.75598" transform="matrix(0.987688 -0.156434 -0.156434 -0.987688 808.891 410.277)" fill="#B7BEE1"/>
<circle cx="4.75598" cy="4.75598" r="4.75598" transform="matrix(0.987688 -0.156434 -0.156434 -0.987688 801.621 425.187)" fill="#B7BEE1"/>
<circle cx="4.75598" cy="4.75598" r="4.75598" transform="matrix(0.987688 -0.156434 -0.156434 -0.987688 817.727 422.636)" fill="#B7BEE1"/>
<circle cx="4.75598" cy="4.75598" r="4.75598" transform="matrix(0.987688 -0.156434 -0.156434 -0.987688 812.051 378.133)" fill="#B7BEE1"/>
<circle cx="4.75598" cy="4.75598" r="4.75598" transform="matrix(0.987688 -0.156434 -0.156434 -0.987688 800.609 384.073)" fill="#B7BEE1"/>
<circle cx="4.75598" cy="4.75598" r="4.75598" transform="matrix(0.987688 -0.156434 -0.156434 -0.987688 776.934 356.18)" fill="#B7BEE1"/>
<circle cx="4.75598" cy="4.75598" r="4.75598" transform="matrix(0.987688 -0.156434 -0.156434 -0.987688 775.363 328.912)" fill="#B7BEE1"/>
<circle cx="4.75598" cy="4.75598" r="4.75598" transform="matrix(0.987688 -0.156434 -0.156434 -0.987688 787.164 333.922)" fill="#B7BEE1"/>
<circle cx="4.75598" cy="4.75598" r="4.75598" transform="matrix(0.987688 -0.156434 -0.156434 -0.987688 798.965 338.932)" fill="#B7BEE1"/>
<circle cx="4.75598" cy="4.75598" r="4.75598" transform="matrix(0.987688 -0.156434 -0.156434 -0.987688 810.977 345.285)" fill="#B7BEE1"/>
<circle cx="4.75598" cy="4.75598" r="4.75598" transform="matrix(0.987688 -0.156434 -0.156434 -0.987688 820.52 353.404)" fill="#B7BEE1"/>
<circle cx="4.75598" cy="4.75598" r="4.75598" transform="matrix(0.987688 -0.156434 -0.156434 -0.987688 831.402 361.311)" fill="#B7BEE1"/>
<circle cx="4.75598" cy="4.75598" r="4.75598" transform="matrix(0.987688 -0.156434 -0.156434 -0.987688 841.152 370.772)" fill="#B7BEE1"/>
<circle cx="4.75598" cy="4.75598" r="4.75598" transform="matrix(0.987688 -0.156434 -0.156434 -0.987688 850.906 380.234)" fill="#B7BEE1"/>
<circle cx="4.75598" cy="4.75598" r="4.75598" transform="matrix(0.987688 -0.156434 -0.156434 -0.987688 739.406 327.729)" fill="#B7BEE1"/>
<circle cx="4.75598" cy="4.75598" r="4.75598" transform="matrix(0.987688 -0.156434 -0.156434 -0.987688 750.996 331.397)" fill="#B7BEE1"/>
<circle cx="4.75598" cy="4.75598" r="4.75598" transform="matrix(0.987688 -0.156434 -0.156434 -0.987688 754.25 343.263)" fill="#B7BEE1"/>
<circle cx="4.75598" cy="4.75598" r="4.75598" transform="matrix(0.987688 -0.156434 -0.156434 -0.987688 757.504 355.13)" fill="#B7BEE1"/>
<circle cx="4.75598" cy="4.75598" r="4.75598" transform="matrix(0.987688 -0.156434 -0.156434 -0.987688 765.703 363.462)" fill="#B7BEE1"/>
<circle cx="4.75598" cy="4.75598" r="4.75598" transform="matrix(0.987688 -0.156434 -0.156434 -0.987688 773.902 371.794)" fill="#B7BEE1"/>
<circle cx="4.75598" cy="4.75598" r="4.75598" transform="matrix(0.987688 -0.156434 -0.156434 -0.987688 785.488 375.462)" fill="#B7BEE1"/>
<circle cx="4.75598" cy="4.75598" r="4.75598" transform="matrix(0.987688 -0.156434 -0.156434 -0.987688 787.828 390.225)" fill="#B7BEE1"/>
<circle cx="4.75598" cy="4.75598" r="4.75598" transform="matrix(0.987688 -0.156434 -0.156434 -0.987688 785.715 402.942)" fill="#B7BEE1"/>
<circle cx="4.75598" cy="4.75598" r="4.75598" transform="matrix(0.987688 -0.156434 -0.156434 -0.987688 670.121 359.339)" fill="#B7BEE1"/>
<circle cx="4.75598" cy="4.75598" r="4.75598" transform="matrix(0.987688 -0.156434 -0.156434 -0.987688 680.859 357.639)" fill="#B7BEE1"/>
<circle cx="4.75598" cy="4.75598" r="4.75598" transform="matrix(0.987688 -0.156434 -0.156434 -0.987688 691.594 355.938)" fill="#B7BEE1"/>
<circle cx="4.75598" cy="4.75598" r="4.75598" transform="matrix(0.987688 -0.156434 -0.156434 -0.987688 623.402 307.58)" fill="#B7BEE1"/>
<circle cx="4.75598" cy="4.75598" r="4.75598" transform="matrix(0.987688 -0.156434 -0.156434 -0.987688 636.051 317.959)" fill="#B7BEE1"/>
<circle cx="4.75598" cy="4.75598" r="4.75598" transform="matrix(0.987688 -0.156434 -0.156434 -0.987688 634.723 344.309)" fill="#B7BEE1"/>
<circle cx="4.75598" cy="4.75598" r="4.75598" transform="matrix(0.987688 -0.156434 -0.156434 -0.987688 785.488 583.883)" fill="#B7BEE1"/>
<circle cx="4.75598" cy="4.75598" r="4.75598" transform="matrix(0.987688 -0.156434 -0.156434 -0.987688 785.488 598.883)" fill="#B7BEE1"/>
<circle cx="4.75598" cy="4.75598" r="4.75598" transform="matrix(0.987688 -0.156434 -0.156434 -0.987688 798.488 581.883)" fill="#B7BEE1"/>
<circle cx="4.75598" cy="4.75598" r="4.75598" transform="matrix(0.987688 -0.156434 -0.156434 -0.987688 770.488 584.883)" fill="#B7BEE1"/>
<defs>
<filter id="filter0_f_274_9122" x="0" y="121" width="1069" height="391.5" filterUnits="userSpaceOnUse" color-interpolation-filters="sRGB">
<feFlood flood-opacity="0" result="BackgroundImageFix"/>
<feBlend mode="normal" in="SourceGraphic" in2="BackgroundImageFix" result="shape"/>
<feGaussianBlur stdDeviation="40" result="effect1_foregroundBlur_274_9122"/>
</filter>
<filter id="filter1_dddd_274_9122" x="37" y="0" width="1039" height="580.5" filterUnits="userSpaceOnUse" color-interpolation-filters="sRGB">
<feFlood flood-opacity="0" result="BackgroundImageFix"/>
<feColorMatrix in="SourceAlpha" type="matrix" values="0 0 0 0 0 0 0 0 0 0 0 0 0 0 0 0 0 0 127 0" result="hardAlpha"/>
<feOffset dx="1" dy="-10"/>
<feGaussianBlur stdDeviation="11"/>
<feColorMatrix type="matrix" values="0 0 0 0 0.768627 0 0 0 0 0.807843 0 0 0 0 0.972549 0 0 0 0.1 0"/>
<feBlend mode="normal" in2="BackgroundImageFix" result="effect1_dropShadow_274_9122"/>
<feColorMatrix in="SourceAlpha" type="matrix" values="0 0 0 0 0 0 0 0 0 0 0 0 0 0 0 0 0 0 127 0" result="hardAlpha"/>
<feOffset dx="5" dy="-40"/>
<feGaussianBlur stdDeviation="20"/>
<feColorMatrix type="matrix" values="0 0 0 0 0.768627 0 0 0 0 0.807843 0 0 0 0 0.972549 0 0 0 0.09 0"/>
<feBlend mode="normal" in2="effect1_dropShadow_274_9122" result="effect2_dropShadow_274_9122"/>
<feColorMatrix in="SourceAlpha" type="matrix" values="0 0 0 0 0 0 0 0 0 0 0 0 0 0 0 0 0 0 127 0" result="hardAlpha"/>
<feOffset dx="12" dy="-90"/>
<feGaussianBlur stdDeviation="27"/>
<feColorMatrix type="matrix" values="0 0 0 0 0.768627 0 0 0 0 0.807843 0 0 0 0 0.972549 0 0 0 0.05 0"/>
<feBlend mode="normal" in2="effect2_dropShadow_274_9122" result="effect3_dropShadow_274_9122"/>
<feColorMatrix in="SourceAlpha" type="matrix" values="0 0 0 0 0 0 0 0 0 0 0 0 0 0 0 0 0 0 127 0" result="hardAlpha"/>
<feOffset dx="22" dy="-160"/>
<feGaussianBlur stdDeviation="32.5"/>
<feColorMatrix type="matrix" values="0 0 0 0 0.768627 0 0 0 0 0.807843 0 0 0 0 0.972549 0 0 0 0.01 0"/>
<feBlend mode="normal" in2="effect3_dropShadow_274_9122" result="effect4_dropShadow_274_9122"/>
<feBlend mode="normal" in="SourceGraphic" in2="effect4_dropShadow_274_9122" result="shape"/>
</filter>
<linearGradient id="paint0_linear_274_9122" x1="164.083" y1="219.196" x2="360.462" y2="831.939" gradientUnits="userSpaceOnUse">
<stop offset="0.217103" stop-color="white"/>
<stop offset="1" stop-color="#DCE0F0"/>
</linearGradient>
<linearGradient id="paint1_linear_274_9122" x1="638.5" y1="628" x2="617.607" y2="296.028" gradientUnits="userSpaceOnUse">
<stop offset="0.217103" stop-color="white"/>
<stop offset="1" stop-color="#E7ECFF"/>
</linearGradient>
</defs>
</svg>
